M48
;GenerationSoftware,Autodesk,EAGLE,9.6.2*%
;CreationDate,2021-06-22T14:35:37Z*%
FMAT,2
ICI,OFF
METRIC,TZ,000.000
T8C0.813
T7C1.000
T6C1.016
T5C1.118
T4C1.321
T3C1.500
T2C1.803
T1C3.500
%
G90
M71
T1
X5000Y90000
X94000Y90000
X94000Y5000
X5000Y5000
T2
X26086Y54610
X26086Y73660
X26086Y16510
X26086Y35560
T3
X10160Y49690
X10160Y54690
X10160Y59690
X10160Y78740
X10160Y73740
X10160Y68740
X10160Y11590
X10160Y16590
X10160Y21590
X10160Y30640
X10160Y35640
X10160Y40640
T4
X40386Y67666
X28194Y79654
X28194Y67666
X28194Y48616
X28194Y10516
X28194Y22504
X40386Y10516
X40386Y22504
X28194Y60604
X40386Y48616
X40386Y60604
X40386Y79654
X28194Y29566
X28194Y41554
X40386Y29566
X40386Y41554
T5
X19050Y21590
X19050Y59690
X19050Y49530
X19050Y78740
X19050Y40640
X19050Y30480
X19050Y11430
X19050Y68580
T6
X63500Y78740
X68580Y78740
X66040Y78740
T7
X92710Y24130
X92710Y26670
X92710Y29210
X92710Y31750
X92710Y34290
X92710Y36830
X92710Y39370
X92710Y44450
X92710Y46990
X92710Y49530
X92710Y52070
X92710Y54610
X64770Y54610
X88900Y82270
X91900Y77470
X85800Y77470
X92710Y19050
X92710Y21590
X64770Y24130
X64770Y19050
X64770Y21590
X64770Y26670
X64770Y29210
X64770Y31750
X64770Y44450
X92710Y41910
X64770Y34290
X64770Y36830
X64770Y39370
X64770Y41910
X64770Y46990
X64770Y49530
X64770Y52070
T8
X55880Y55880
X49530Y40640
X49530Y68580
X55880Y72390
X55880Y36830
X55880Y17780
X53975Y16510
X55880Y15240
X49530Y11430
X53975Y35560
X55880Y34290
X49530Y49530
X49530Y30480
X49530Y78740
X53975Y54610
X55880Y53340
X49530Y21590
X53975Y73660
X55880Y74930
X49530Y59690
X76200Y78740
X78740Y78740
X76200Y71120
X86360Y71120
M30