G04 EAGLE Gerber RS-274X export*
G75*
%MOMM*%
%FSLAX34Y34*%
%LPD*%
%IN*%
%IPPOS*%
%AMOC8*
5,1,8,0,0,1.08239X$1,22.5*%
G01*
%ADD10C,0.254000*%


D10*
X0Y0D02*
X990400Y0D01*
X990400Y949200D01*
X0Y949200D01*
X0Y0D01*
X914000Y760700D02*
X924000Y760700D01*
X924000Y788700D01*
X914000Y788700D01*
X914000Y760700D01*
X853000Y758200D02*
X863000Y758200D01*
X863000Y791200D01*
X853000Y791200D01*
X853000Y758200D01*
X875000Y817700D02*
X903000Y817700D01*
X903000Y827700D01*
X875000Y827700D01*
X875000Y817700D01*
X67500Y899427D02*
X67425Y898284D01*
X67276Y897148D01*
X67052Y896024D01*
X66755Y894917D01*
X66387Y893832D01*
X65949Y892774D01*
X65442Y891746D01*
X64869Y890754D01*
X64232Y889801D01*
X63535Y888892D01*
X62779Y888031D01*
X61969Y887221D01*
X61108Y886465D01*
X60199Y885768D01*
X59246Y885131D01*
X58254Y884558D01*
X57226Y884051D01*
X56168Y883613D01*
X55083Y883245D01*
X53976Y882948D01*
X52852Y882725D01*
X51716Y882575D01*
X50573Y882500D01*
X49427Y882500D01*
X48284Y882575D01*
X47148Y882725D01*
X46024Y882948D01*
X44917Y883245D01*
X43832Y883613D01*
X42774Y884051D01*
X41746Y884558D01*
X40754Y885131D01*
X39801Y885768D01*
X38892Y886465D01*
X38031Y887221D01*
X37221Y888031D01*
X36465Y888892D01*
X35768Y889801D01*
X35131Y890754D01*
X34558Y891746D01*
X34051Y892774D01*
X33613Y893832D01*
X33245Y894917D01*
X32948Y896024D01*
X32725Y897148D01*
X32575Y898284D01*
X32500Y899427D01*
X32500Y900573D01*
X32575Y901716D01*
X32725Y902852D01*
X32948Y903976D01*
X33245Y905083D01*
X33613Y906168D01*
X34051Y907226D01*
X34558Y908254D01*
X35131Y909246D01*
X35768Y910199D01*
X36465Y911108D01*
X37221Y911969D01*
X38031Y912779D01*
X38892Y913535D01*
X39801Y914232D01*
X40754Y914869D01*
X41746Y915442D01*
X42774Y915949D01*
X43832Y916387D01*
X44917Y916755D01*
X46024Y917052D01*
X47148Y917276D01*
X48284Y917425D01*
X49427Y917500D01*
X50573Y917500D01*
X51716Y917425D01*
X52852Y917276D01*
X53976Y917052D01*
X55083Y916755D01*
X56168Y916387D01*
X57226Y915949D01*
X58254Y915442D01*
X59246Y914869D01*
X60199Y914232D01*
X61108Y913535D01*
X61969Y912779D01*
X62779Y911969D01*
X63535Y911108D01*
X64232Y910199D01*
X64869Y909246D01*
X65442Y908254D01*
X65949Y907226D01*
X66387Y906168D01*
X66755Y905083D01*
X67052Y903976D01*
X67276Y902852D01*
X67425Y901716D01*
X67500Y900573D01*
X67500Y899427D01*
X957500Y899427D02*
X957425Y898284D01*
X957276Y897148D01*
X957052Y896024D01*
X956755Y894917D01*
X956387Y893832D01*
X955949Y892774D01*
X955442Y891746D01*
X954869Y890754D01*
X954232Y889801D01*
X953535Y888892D01*
X952779Y888031D01*
X951969Y887221D01*
X951108Y886465D01*
X950199Y885768D01*
X949246Y885131D01*
X948254Y884558D01*
X947226Y884051D01*
X946168Y883613D01*
X945083Y883245D01*
X943976Y882948D01*
X942852Y882725D01*
X941716Y882575D01*
X940573Y882500D01*
X939427Y882500D01*
X938284Y882575D01*
X937148Y882725D01*
X936024Y882948D01*
X934917Y883245D01*
X933832Y883613D01*
X932774Y884051D01*
X931746Y884558D01*
X930754Y885131D01*
X929801Y885768D01*
X928892Y886465D01*
X928031Y887221D01*
X927221Y888031D01*
X926465Y888892D01*
X925768Y889801D01*
X925131Y890754D01*
X924558Y891746D01*
X924051Y892774D01*
X923613Y893832D01*
X923245Y894917D01*
X922948Y896024D01*
X922725Y897148D01*
X922575Y898284D01*
X922500Y899427D01*
X922500Y900573D01*
X922575Y901716D01*
X922725Y902852D01*
X922948Y903976D01*
X923245Y905083D01*
X923613Y906168D01*
X924051Y907226D01*
X924558Y908254D01*
X925131Y909246D01*
X925768Y910199D01*
X926465Y911108D01*
X927221Y911969D01*
X928031Y912779D01*
X928892Y913535D01*
X929801Y914232D01*
X930754Y914869D01*
X931746Y915442D01*
X932774Y915949D01*
X933832Y916387D01*
X934917Y916755D01*
X936024Y917052D01*
X937148Y917276D01*
X938284Y917425D01*
X939427Y917500D01*
X940573Y917500D01*
X941716Y917425D01*
X942852Y917276D01*
X943976Y917052D01*
X945083Y916755D01*
X946168Y916387D01*
X947226Y915949D01*
X948254Y915442D01*
X949246Y914869D01*
X950199Y914232D01*
X951108Y913535D01*
X951969Y912779D01*
X952779Y911969D01*
X953535Y911108D01*
X954232Y910199D01*
X954869Y909246D01*
X955442Y908254D01*
X955949Y907226D01*
X956387Y906168D01*
X956755Y905083D01*
X957052Y903976D01*
X957276Y902852D01*
X957425Y901716D01*
X957500Y900573D01*
X957500Y899427D01*
X957500Y49427D02*
X957425Y48284D01*
X957276Y47148D01*
X957052Y46024D01*
X956755Y44917D01*
X956387Y43832D01*
X955949Y42774D01*
X955442Y41746D01*
X954869Y40754D01*
X954232Y39801D01*
X953535Y38892D01*
X952779Y38031D01*
X951969Y37221D01*
X951108Y36465D01*
X950199Y35768D01*
X949246Y35131D01*
X948254Y34558D01*
X947226Y34051D01*
X946168Y33613D01*
X945083Y33245D01*
X943976Y32948D01*
X942852Y32725D01*
X941716Y32575D01*
X940573Y32500D01*
X939427Y32500D01*
X938284Y32575D01*
X937148Y32725D01*
X936024Y32948D01*
X934917Y33245D01*
X933832Y33613D01*
X932774Y34051D01*
X931746Y34558D01*
X930754Y35131D01*
X929801Y35768D01*
X928892Y36465D01*
X928031Y37221D01*
X927221Y38031D01*
X926465Y38892D01*
X925768Y39801D01*
X925131Y40754D01*
X924558Y41746D01*
X924051Y42774D01*
X923613Y43832D01*
X923245Y44917D01*
X922948Y46024D01*
X922725Y47148D01*
X922575Y48284D01*
X922500Y49427D01*
X922500Y50573D01*
X922575Y51716D01*
X922725Y52852D01*
X922948Y53976D01*
X923245Y55083D01*
X923613Y56168D01*
X924051Y57226D01*
X924558Y58254D01*
X925131Y59246D01*
X925768Y60199D01*
X926465Y61108D01*
X927221Y61969D01*
X928031Y62779D01*
X928892Y63535D01*
X929801Y64232D01*
X930754Y64869D01*
X931746Y65442D01*
X932774Y65949D01*
X933832Y66387D01*
X934917Y66755D01*
X936024Y67052D01*
X937148Y67276D01*
X938284Y67425D01*
X939427Y67500D01*
X940573Y67500D01*
X941716Y67425D01*
X942852Y67276D01*
X943976Y67052D01*
X945083Y66755D01*
X946168Y66387D01*
X947226Y65949D01*
X948254Y65442D01*
X949246Y64869D01*
X950199Y64232D01*
X951108Y63535D01*
X951969Y62779D01*
X952779Y61969D01*
X953535Y61108D01*
X954232Y60199D01*
X954869Y59246D01*
X955442Y58254D01*
X955949Y57226D01*
X956387Y56168D01*
X956755Y55083D01*
X957052Y53976D01*
X957276Y52852D01*
X957425Y51716D01*
X957500Y50573D01*
X957500Y49427D01*
X67500Y49427D02*
X67425Y48284D01*
X67276Y47148D01*
X67052Y46024D01*
X66755Y44917D01*
X66387Y43832D01*
X65949Y42774D01*
X65442Y41746D01*
X64869Y40754D01*
X64232Y39801D01*
X63535Y38892D01*
X62779Y38031D01*
X61969Y37221D01*
X61108Y36465D01*
X60199Y35768D01*
X59246Y35131D01*
X58254Y34558D01*
X57226Y34051D01*
X56168Y33613D01*
X55083Y33245D01*
X53976Y32948D01*
X52852Y32725D01*
X51716Y32575D01*
X50573Y32500D01*
X49427Y32500D01*
X48284Y32575D01*
X47148Y32725D01*
X46024Y32948D01*
X44917Y33245D01*
X43832Y33613D01*
X42774Y34051D01*
X41746Y34558D01*
X40754Y35131D01*
X39801Y35768D01*
X38892Y36465D01*
X38031Y37221D01*
X37221Y38031D01*
X36465Y38892D01*
X35768Y39801D01*
X35131Y40754D01*
X34558Y41746D01*
X34051Y42774D01*
X33613Y43832D01*
X33245Y44917D01*
X32948Y46024D01*
X32725Y47148D01*
X32575Y48284D01*
X32500Y49427D01*
X32500Y50573D01*
X32575Y51716D01*
X32725Y52852D01*
X32948Y53976D01*
X33245Y55083D01*
X33613Y56168D01*
X34051Y57226D01*
X34558Y58254D01*
X35131Y59246D01*
X35768Y60199D01*
X36465Y61108D01*
X37221Y61969D01*
X38031Y62779D01*
X38892Y63535D01*
X39801Y64232D01*
X40754Y64869D01*
X41746Y65442D01*
X42774Y65949D01*
X43832Y66387D01*
X44917Y66755D01*
X46024Y67052D01*
X47148Y67276D01*
X48284Y67425D01*
X49427Y67500D01*
X50573Y67500D01*
X51716Y67425D01*
X52852Y67276D01*
X53976Y67052D01*
X55083Y66755D01*
X56168Y66387D01*
X57226Y65949D01*
X58254Y65442D01*
X59246Y64869D01*
X60199Y64232D01*
X61108Y63535D01*
X61969Y62779D01*
X62779Y61969D01*
X63535Y61108D01*
X64232Y60199D01*
X64869Y59246D01*
X65442Y58254D01*
X65949Y57226D01*
X66387Y56168D01*
X66755Y55083D01*
X67052Y53976D01*
X67276Y52852D01*
X67425Y51716D01*
X67500Y50573D01*
X67500Y49427D01*
M02*
