G04 EAGLE Gerber RS-274X export*
G75*
%MOMM*%
%FSLAX34Y34*%
%LPD*%
%INSoldermask Bottom*%
%IPPOS*%
%AMOC8*
5,1,8,0,0,1.08239X$1,22.5*%
G01*
%ADD10C,3.703200*%
%ADD11C,1.879600*%
%ADD12P,1.649562X8X112.500000*%
%ADD13P,2.034460X8X112.500000*%
%ADD14C,1.879600*%
%ADD15C,2.184400*%
%ADD16C,2.908300*%
%ADD17C,1.727200*%
%ADD18C,2.203200*%
%ADD19C,2.453200*%
%ADD20P,2.034460X8X22.500000*%


D10*
X50000Y900000D03*
X940000Y900000D03*
X940000Y50000D03*
X50000Y50000D03*
D11*
X918718Y190500D02*
X935482Y190500D01*
X935482Y215900D02*
X918718Y215900D01*
X918718Y241300D02*
X935482Y241300D01*
X935482Y266700D02*
X918718Y266700D01*
X918718Y292100D02*
X935482Y292100D01*
X935482Y317500D02*
X918718Y317500D01*
X918718Y342900D02*
X935482Y342900D01*
X935482Y368300D02*
X918718Y368300D01*
X918718Y393700D02*
X935482Y393700D01*
X935482Y419100D02*
X918718Y419100D01*
X918718Y444500D02*
X935482Y444500D01*
X935482Y469900D02*
X918718Y469900D01*
X918718Y495300D02*
X935482Y495300D01*
X935482Y520700D02*
X918718Y520700D01*
X918718Y546100D02*
X935482Y546100D01*
X656082Y546100D02*
X639318Y546100D01*
X639318Y520700D02*
X656082Y520700D01*
X656082Y495300D02*
X639318Y495300D01*
X639318Y469900D02*
X656082Y469900D01*
X656082Y444500D02*
X639318Y444500D01*
X639318Y419100D02*
X656082Y419100D01*
X656082Y393700D02*
X639318Y393700D01*
X639318Y368300D02*
X656082Y368300D01*
X656082Y342900D02*
X639318Y342900D01*
X639318Y317500D02*
X656082Y317500D01*
X656082Y292100D02*
X639318Y292100D01*
X639318Y266700D02*
X656082Y266700D01*
X656082Y241300D02*
X639318Y241300D01*
X639318Y215900D02*
X656082Y215900D01*
X656082Y190500D02*
X639318Y190500D01*
D12*
X558800Y749300D03*
X539750Y736600D03*
X558800Y723900D03*
D13*
X495300Y685800D03*
X495300Y787400D03*
D14*
X190500Y787400D03*
X190500Y685800D03*
D15*
X393954Y796544D02*
X413766Y796544D01*
X413766Y676656D02*
X393954Y676656D01*
X291846Y796544D02*
X272034Y796544D01*
X272034Y676656D02*
X291846Y676656D01*
D16*
X274384Y736600D02*
X247333Y736600D01*
D17*
X635000Y779780D02*
X635000Y795020D01*
X660400Y795020D02*
X660400Y779780D01*
X685800Y779780D02*
X685800Y795020D01*
D18*
X858000Y784700D02*
X858000Y764700D01*
X919000Y764700D02*
X919000Y784700D01*
X899000Y822700D02*
X879000Y822700D01*
D19*
X101600Y787400D03*
X101600Y737400D03*
X101600Y687400D03*
D12*
X558800Y558800D03*
X539750Y546100D03*
X558800Y533400D03*
D13*
X495300Y495300D03*
X495300Y596900D03*
D14*
X190500Y596900D03*
X190500Y495300D03*
D15*
X393954Y606044D02*
X413766Y606044D01*
X413766Y486156D02*
X393954Y486156D01*
X291846Y606044D02*
X272034Y606044D01*
X272034Y486156D02*
X291846Y486156D01*
D16*
X274384Y546100D02*
X247333Y546100D01*
D19*
X101600Y596900D03*
X101600Y546900D03*
X101600Y496900D03*
D12*
X558800Y368300D03*
X539750Y355600D03*
X558800Y342900D03*
D13*
X495300Y304800D03*
X495300Y406400D03*
D14*
X190500Y406400D03*
X190500Y304800D03*
D15*
X393954Y415544D02*
X413766Y415544D01*
X413766Y295656D02*
X393954Y295656D01*
X291846Y415544D02*
X272034Y415544D01*
X272034Y295656D02*
X291846Y295656D01*
D16*
X274384Y355600D02*
X247333Y355600D01*
D19*
X101600Y406400D03*
X101600Y356400D03*
X101600Y306400D03*
D12*
X558800Y177800D03*
X539750Y165100D03*
X558800Y152400D03*
D13*
X495300Y114300D03*
X495300Y215900D03*
D14*
X190500Y215900D03*
X190500Y114300D03*
D15*
X393954Y225044D02*
X413766Y225044D01*
X413766Y105156D02*
X393954Y105156D01*
X291846Y225044D02*
X272034Y225044D01*
X272034Y105156D02*
X291846Y105156D01*
D16*
X274384Y165100D02*
X247333Y165100D01*
D19*
X101600Y215900D03*
X101600Y165900D03*
X101600Y115900D03*
D20*
X762000Y787400D03*
X787400Y787400D03*
X762000Y711200D03*
X863600Y711200D03*
M02*
