G75*
%MOIN*%
%OFA0B0*%
%FSLAX24Y24*%
%IPPOS*%
%LPD*%
%AMOC8*
5,1,8,0,0,1.08239X$1,22.5*
%
%ADD10C,0.0000*%
%ADD11C,0.0100*%
%ADD12C,0.0130*%
%ADD13C,0.0050*%
%ADD14C,0.0040*%
%ADD15C,0.0060*%
%ADD16R,0.0240X0.0340*%
%ADD17R,0.1000X0.0200*%
%ADD18R,0.0300X0.0750*%
%ADD19C,0.0070*%
%ADD20R,0.4200X0.0300*%
%ADD21R,0.0750X0.0200*%
%ADD22R,0.0300X0.0200*%
%ADD23C,0.0080*%
%ADD24C,0.0006*%
%ADD25C,0.0010*%
%ADD26R,0.0340X0.0240*%
D10*
X000100Y000100D02*
X000100Y037470D01*
X039092Y037470D01*
X039092Y000100D01*
X000100Y000100D01*
X001380Y002069D02*
X001382Y002121D01*
X001388Y002173D01*
X001398Y002224D01*
X001411Y002274D01*
X001429Y002324D01*
X001450Y002371D01*
X001474Y002417D01*
X001503Y002461D01*
X001534Y002503D01*
X001568Y002542D01*
X001605Y002579D01*
X001645Y002612D01*
X001688Y002643D01*
X001732Y002670D01*
X001778Y002694D01*
X001827Y002714D01*
X001876Y002730D01*
X001927Y002743D01*
X001978Y002752D01*
X002030Y002757D01*
X002082Y002758D01*
X002134Y002755D01*
X002186Y002748D01*
X002237Y002737D01*
X002287Y002723D01*
X002336Y002704D01*
X002383Y002682D01*
X002428Y002657D01*
X002472Y002628D01*
X002513Y002596D01*
X002552Y002561D01*
X002587Y002523D01*
X002620Y002482D01*
X002650Y002440D01*
X002676Y002395D01*
X002699Y002348D01*
X002718Y002299D01*
X002734Y002249D01*
X002746Y002199D01*
X002754Y002147D01*
X002758Y002095D01*
X002758Y002043D01*
X002754Y001991D01*
X002746Y001939D01*
X002734Y001889D01*
X002718Y001839D01*
X002699Y001790D01*
X002676Y001743D01*
X002650Y001698D01*
X002620Y001656D01*
X002587Y001615D01*
X002552Y001577D01*
X002513Y001542D01*
X002472Y001510D01*
X002428Y001481D01*
X002383Y001456D01*
X002336Y001434D01*
X002287Y001415D01*
X002237Y001401D01*
X002186Y001390D01*
X002134Y001383D01*
X002082Y001380D01*
X002030Y001381D01*
X001978Y001386D01*
X001927Y001395D01*
X001876Y001408D01*
X001827Y001424D01*
X001778Y001444D01*
X001732Y001468D01*
X001688Y001495D01*
X001645Y001526D01*
X001605Y001559D01*
X001568Y001596D01*
X001534Y001635D01*
X001503Y001677D01*
X001474Y001721D01*
X001450Y001767D01*
X001429Y001814D01*
X001411Y001864D01*
X001398Y001914D01*
X001388Y001965D01*
X001382Y002017D01*
X001380Y002069D01*
X001380Y035533D02*
X001382Y035585D01*
X001388Y035637D01*
X001398Y035688D01*
X001411Y035738D01*
X001429Y035788D01*
X001450Y035835D01*
X001474Y035881D01*
X001503Y035925D01*
X001534Y035967D01*
X001568Y036006D01*
X001605Y036043D01*
X001645Y036076D01*
X001688Y036107D01*
X001732Y036134D01*
X001778Y036158D01*
X001827Y036178D01*
X001876Y036194D01*
X001927Y036207D01*
X001978Y036216D01*
X002030Y036221D01*
X002082Y036222D01*
X002134Y036219D01*
X002186Y036212D01*
X002237Y036201D01*
X002287Y036187D01*
X002336Y036168D01*
X002383Y036146D01*
X002428Y036121D01*
X002472Y036092D01*
X002513Y036060D01*
X002552Y036025D01*
X002587Y035987D01*
X002620Y035946D01*
X002650Y035904D01*
X002676Y035859D01*
X002699Y035812D01*
X002718Y035763D01*
X002734Y035713D01*
X002746Y035663D01*
X002754Y035611D01*
X002758Y035559D01*
X002758Y035507D01*
X002754Y035455D01*
X002746Y035403D01*
X002734Y035353D01*
X002718Y035303D01*
X002699Y035254D01*
X002676Y035207D01*
X002650Y035162D01*
X002620Y035120D01*
X002587Y035079D01*
X002552Y035041D01*
X002513Y035006D01*
X002472Y034974D01*
X002428Y034945D01*
X002383Y034920D01*
X002336Y034898D01*
X002287Y034879D01*
X002237Y034865D01*
X002186Y034854D01*
X002134Y034847D01*
X002082Y034844D01*
X002030Y034845D01*
X001978Y034850D01*
X001927Y034859D01*
X001876Y034872D01*
X001827Y034888D01*
X001778Y034908D01*
X001732Y034932D01*
X001688Y034959D01*
X001645Y034990D01*
X001605Y035023D01*
X001568Y035060D01*
X001534Y035099D01*
X001503Y035141D01*
X001474Y035185D01*
X001450Y035231D01*
X001429Y035278D01*
X001411Y035328D01*
X001398Y035378D01*
X001388Y035429D01*
X001382Y035481D01*
X001380Y035533D01*
X036419Y035533D02*
X036421Y035585D01*
X036427Y035637D01*
X036437Y035688D01*
X036450Y035738D01*
X036468Y035788D01*
X036489Y035835D01*
X036513Y035881D01*
X036542Y035925D01*
X036573Y035967D01*
X036607Y036006D01*
X036644Y036043D01*
X036684Y036076D01*
X036727Y036107D01*
X036771Y036134D01*
X036817Y036158D01*
X036866Y036178D01*
X036915Y036194D01*
X036966Y036207D01*
X037017Y036216D01*
X037069Y036221D01*
X037121Y036222D01*
X037173Y036219D01*
X037225Y036212D01*
X037276Y036201D01*
X037326Y036187D01*
X037375Y036168D01*
X037422Y036146D01*
X037467Y036121D01*
X037511Y036092D01*
X037552Y036060D01*
X037591Y036025D01*
X037626Y035987D01*
X037659Y035946D01*
X037689Y035904D01*
X037715Y035859D01*
X037738Y035812D01*
X037757Y035763D01*
X037773Y035713D01*
X037785Y035663D01*
X037793Y035611D01*
X037797Y035559D01*
X037797Y035507D01*
X037793Y035455D01*
X037785Y035403D01*
X037773Y035353D01*
X037757Y035303D01*
X037738Y035254D01*
X037715Y035207D01*
X037689Y035162D01*
X037659Y035120D01*
X037626Y035079D01*
X037591Y035041D01*
X037552Y035006D01*
X037511Y034974D01*
X037467Y034945D01*
X037422Y034920D01*
X037375Y034898D01*
X037326Y034879D01*
X037276Y034865D01*
X037225Y034854D01*
X037173Y034847D01*
X037121Y034844D01*
X037069Y034845D01*
X037017Y034850D01*
X036966Y034859D01*
X036915Y034872D01*
X036866Y034888D01*
X036817Y034908D01*
X036771Y034932D01*
X036727Y034959D01*
X036684Y034990D01*
X036644Y035023D01*
X036607Y035060D01*
X036573Y035099D01*
X036542Y035141D01*
X036513Y035185D01*
X036489Y035231D01*
X036468Y035278D01*
X036450Y035328D01*
X036437Y035378D01*
X036427Y035429D01*
X036421Y035481D01*
X036419Y035533D01*
X036419Y002069D02*
X036421Y002121D01*
X036427Y002173D01*
X036437Y002224D01*
X036450Y002274D01*
X036468Y002324D01*
X036489Y002371D01*
X036513Y002417D01*
X036542Y002461D01*
X036573Y002503D01*
X036607Y002542D01*
X036644Y002579D01*
X036684Y002612D01*
X036727Y002643D01*
X036771Y002670D01*
X036817Y002694D01*
X036866Y002714D01*
X036915Y002730D01*
X036966Y002743D01*
X037017Y002752D01*
X037069Y002757D01*
X037121Y002758D01*
X037173Y002755D01*
X037225Y002748D01*
X037276Y002737D01*
X037326Y002723D01*
X037375Y002704D01*
X037422Y002682D01*
X037467Y002657D01*
X037511Y002628D01*
X037552Y002596D01*
X037591Y002561D01*
X037626Y002523D01*
X037659Y002482D01*
X037689Y002440D01*
X037715Y002395D01*
X037738Y002348D01*
X037757Y002299D01*
X037773Y002249D01*
X037785Y002199D01*
X037793Y002147D01*
X037797Y002095D01*
X037797Y002043D01*
X037793Y001991D01*
X037785Y001939D01*
X037773Y001889D01*
X037757Y001839D01*
X037738Y001790D01*
X037715Y001743D01*
X037689Y001698D01*
X037659Y001656D01*
X037626Y001615D01*
X037591Y001577D01*
X037552Y001542D01*
X037511Y001510D01*
X037467Y001481D01*
X037422Y001456D01*
X037375Y001434D01*
X037326Y001415D01*
X037276Y001401D01*
X037225Y001390D01*
X037173Y001383D01*
X037121Y001380D01*
X037069Y001381D01*
X037017Y001386D01*
X036966Y001395D01*
X036915Y001408D01*
X036866Y001424D01*
X036817Y001444D01*
X036771Y001468D01*
X036727Y001495D01*
X036684Y001526D01*
X036644Y001559D01*
X036607Y001596D01*
X036573Y001635D01*
X036542Y001677D01*
X036513Y001721D01*
X036489Y001767D01*
X036468Y001814D01*
X036450Y001864D01*
X036437Y001914D01*
X036427Y001965D01*
X036421Y002017D01*
X036419Y002069D01*
D11*
X028511Y001700D02*
X028511Y001150D01*
X028144Y001150D02*
X028144Y001700D01*
X028327Y001884D01*
X028511Y001700D01*
X028144Y001700D02*
X027960Y001884D01*
X027777Y001884D01*
X027777Y001150D01*
X027406Y001333D02*
X027406Y001700D01*
X027222Y001884D01*
X026855Y001884D01*
X026672Y001700D01*
X026672Y001333D01*
X026855Y001150D01*
X027222Y001150D01*
X027406Y001333D01*
X026301Y001150D02*
X025750Y001150D01*
X025567Y001333D01*
X025567Y001700D01*
X025750Y001884D01*
X026301Y001884D01*
X025198Y001333D02*
X025198Y001150D01*
X025014Y001150D01*
X025014Y001333D01*
X025198Y001333D01*
X024643Y002067D02*
X024643Y002251D01*
X024643Y002067D02*
X024276Y001700D01*
X024276Y001150D01*
X024276Y001700D02*
X023909Y002067D01*
X023909Y002251D01*
X023540Y002251D02*
X023173Y002251D01*
X023356Y002251D02*
X023356Y001150D01*
X023173Y001150D02*
X023540Y001150D01*
X022802Y001333D02*
X022802Y002067D01*
X022618Y002251D01*
X022068Y002251D01*
X022068Y001150D01*
X022618Y001150D01*
X022802Y001333D01*
X021697Y001700D02*
X020963Y001700D01*
X020593Y001884D02*
X020226Y001884D01*
X020410Y002067D02*
X020410Y001333D01*
X020593Y001150D01*
X019857Y001150D02*
X019490Y001150D01*
X019673Y001150D02*
X019673Y001884D01*
X019490Y001884D01*
X019119Y001884D02*
X019119Y001150D01*
X018568Y001150D01*
X018385Y001333D01*
X018385Y001884D01*
X018014Y001884D02*
X017463Y001884D01*
X017280Y001700D01*
X017280Y001333D01*
X017463Y001150D01*
X018014Y001150D01*
X016909Y001884D02*
X016726Y001884D01*
X016359Y001517D01*
X016359Y001150D02*
X016359Y001884D01*
X015806Y001884D02*
X015806Y001150D01*
X015989Y001150D02*
X015622Y001150D01*
X015251Y001333D02*
X015068Y001150D01*
X014701Y001150D01*
X014517Y001333D01*
X014517Y002067D01*
X014701Y002251D01*
X015068Y002251D01*
X015251Y002067D01*
X015622Y001884D02*
X015806Y001884D01*
X015806Y002251D02*
X015806Y002434D01*
X014148Y001333D02*
X014148Y001150D01*
X013965Y001150D01*
X013965Y001333D01*
X014148Y001333D01*
X013594Y001333D02*
X013594Y001884D01*
X013594Y001333D02*
X013410Y001150D01*
X013227Y001333D01*
X013043Y001150D01*
X012860Y001333D01*
X012860Y001884D01*
X012489Y001884D02*
X012489Y001333D01*
X012305Y001150D01*
X012122Y001333D01*
X011938Y001150D01*
X011755Y001333D01*
X011755Y001884D01*
X011384Y001884D02*
X011384Y001333D01*
X011200Y001150D01*
X011017Y001333D01*
X010833Y001150D01*
X010650Y001333D01*
X010650Y001884D01*
X011600Y006100D02*
X012350Y006100D01*
X012600Y006100D01*
X013600Y006100D01*
X013600Y007100D01*
X012850Y007100D01*
X012600Y007100D01*
X011600Y007100D01*
X011600Y006100D01*
X011600Y013600D02*
X012350Y013600D01*
X012600Y013600D01*
X013600Y013600D01*
X013600Y014600D01*
X012850Y014600D01*
X012600Y014600D01*
X011600Y014600D01*
X011600Y013600D01*
X011600Y021100D02*
X012350Y021100D01*
X012600Y021100D01*
X013600Y021100D01*
X013600Y022100D01*
X012850Y022100D01*
X012600Y022100D01*
X011600Y022100D01*
X011600Y021100D01*
X011600Y028600D02*
X012350Y028600D01*
X012600Y028600D01*
X013600Y028600D01*
X013600Y029600D01*
X012850Y029600D01*
X012600Y029600D01*
X011600Y029600D01*
X011600Y028600D01*
X019673Y002434D02*
X019673Y002251D01*
D12*
X020391Y034665D02*
X020391Y035629D01*
X020873Y036111D01*
X021355Y035629D01*
X021355Y034665D01*
X021841Y034906D02*
X022082Y034665D01*
X022805Y034665D01*
X022805Y035629D01*
X023291Y035629D02*
X023773Y035629D01*
X023532Y035870D02*
X023532Y034906D01*
X023773Y034665D01*
X024257Y034906D02*
X024498Y034665D01*
X024980Y034665D01*
X025221Y034906D01*
X025221Y035388D01*
X024980Y035629D01*
X024498Y035629D01*
X024257Y035388D01*
X024257Y034906D01*
X025707Y034665D02*
X025707Y035629D01*
X025948Y035629D01*
X026189Y035388D01*
X026431Y035629D01*
X026672Y035388D01*
X026672Y034665D01*
X026189Y034665D02*
X026189Y035388D01*
X027158Y034906D02*
X027399Y035147D01*
X028122Y035147D01*
X028122Y035388D02*
X027881Y035629D01*
X027399Y035629D01*
X028122Y035388D02*
X028122Y034665D01*
X027399Y034665D01*
X027158Y034906D01*
X028608Y035629D02*
X029090Y035629D01*
X028849Y035870D02*
X028849Y034906D01*
X029090Y034665D01*
X029574Y034665D02*
X030056Y034665D01*
X029815Y034665D02*
X029815Y035629D01*
X029574Y035629D01*
X029815Y036111D02*
X029815Y036352D01*
X030541Y035388D02*
X030541Y034906D01*
X030782Y034665D01*
X031264Y034665D01*
X031505Y034906D01*
X031505Y035388D01*
X031264Y035629D01*
X030782Y035629D01*
X030541Y035388D01*
X031991Y035629D02*
X031991Y034665D01*
X031991Y035629D02*
X032714Y035629D01*
X032955Y035388D01*
X032955Y034665D01*
X021841Y034906D02*
X021841Y035629D01*
X021355Y035388D02*
X020391Y035388D01*
X018455Y035388D02*
X018455Y035147D01*
X017490Y035147D01*
X017490Y034906D02*
X017490Y035388D01*
X017731Y035629D01*
X018214Y035629D01*
X018455Y035388D01*
X018214Y034665D02*
X017731Y034665D01*
X017490Y034906D01*
X017004Y034665D02*
X017004Y035388D01*
X016763Y035629D01*
X016522Y035388D01*
X016522Y034665D01*
X016040Y034665D02*
X016040Y035629D01*
X016281Y035629D01*
X016522Y035388D01*
X015554Y035388D02*
X015554Y034906D01*
X015313Y034665D01*
X014831Y034665D01*
X014590Y034906D01*
X014590Y035388D01*
X014831Y035629D01*
X015313Y035629D01*
X015554Y035388D01*
X014104Y035388D02*
X013140Y035388D01*
X013140Y034665D02*
X013140Y036111D01*
X014104Y036111D02*
X014104Y034665D01*
X011206Y034665D02*
X010965Y034906D01*
X010965Y035870D01*
X010724Y035629D02*
X011206Y035629D01*
X010238Y035629D02*
X009997Y035629D01*
X009515Y035147D01*
X009515Y034665D02*
X009515Y035629D01*
X009029Y035388D02*
X009029Y034665D01*
X008306Y034665D01*
X008065Y034906D01*
X008306Y035147D01*
X009029Y035147D01*
X009029Y035388D02*
X008788Y035629D01*
X008306Y035629D01*
X007579Y035388D02*
X007579Y034665D01*
X007097Y034665D02*
X007097Y035388D01*
X007338Y035629D01*
X007579Y035388D01*
X007097Y035388D02*
X006856Y035629D01*
X006615Y035629D01*
X006615Y034665D01*
X006129Y034906D02*
X006129Y035147D01*
X005888Y035388D01*
X005406Y035388D01*
X005165Y035629D01*
X005165Y035870D01*
X005406Y036111D01*
X005888Y036111D01*
X006129Y035870D01*
X006129Y034906D02*
X005888Y034665D01*
X005406Y034665D01*
X005165Y034906D01*
D13*
X006069Y032084D02*
X002131Y032084D01*
X002131Y026179D01*
X006069Y026179D01*
X006069Y032084D01*
X006925Y029086D02*
X006925Y028785D01*
X006925Y028936D02*
X006475Y028936D01*
X006625Y028785D01*
X006550Y028625D02*
X006475Y028550D01*
X006475Y028325D01*
X006925Y028325D01*
X006925Y028550D01*
X006850Y028625D01*
X006550Y028625D01*
X006069Y024584D02*
X002131Y024584D01*
X002131Y018679D01*
X006069Y018679D01*
X006069Y024584D01*
X006550Y021586D02*
X006475Y021511D01*
X006475Y021360D01*
X006550Y021285D01*
X006550Y021125D02*
X006475Y021050D01*
X006475Y020825D01*
X006925Y020825D01*
X006925Y021050D01*
X006850Y021125D01*
X006550Y021125D01*
X006925Y021285D02*
X006625Y021586D01*
X006550Y021586D01*
X006925Y021586D02*
X006925Y021285D01*
X006069Y017084D02*
X002131Y017084D01*
X002131Y011179D01*
X006069Y011179D01*
X006069Y017084D01*
X006550Y014086D02*
X006625Y014086D01*
X006700Y014011D01*
X006775Y014086D01*
X006850Y014086D01*
X006925Y014011D01*
X006925Y013860D01*
X006850Y013785D01*
X006850Y013625D02*
X006550Y013625D01*
X006475Y013550D01*
X006475Y013325D01*
X006925Y013325D01*
X006925Y013550D01*
X006850Y013625D01*
X006550Y013785D02*
X006475Y013860D01*
X006475Y014011D01*
X006550Y014086D01*
X006700Y014011D02*
X006700Y013936D01*
X006069Y009584D02*
X002131Y009584D01*
X002131Y003679D01*
X006069Y003679D01*
X006069Y009584D01*
X006700Y006586D02*
X006700Y006285D01*
X006475Y006511D01*
X006925Y006511D01*
X006850Y006125D02*
X006550Y006125D01*
X006475Y006050D01*
X006475Y005825D01*
X006925Y005825D01*
X006925Y006050D01*
X006850Y006125D01*
X018525Y006111D02*
X018750Y005885D01*
X018750Y006186D01*
X018975Y006111D02*
X018525Y006111D01*
X018600Y005725D02*
X018750Y005725D01*
X018825Y005650D01*
X018825Y005425D01*
X018975Y005425D02*
X018525Y005425D01*
X018525Y005650D01*
X018600Y005725D01*
X018825Y005575D02*
X018975Y005725D01*
X021375Y007875D02*
X021375Y008175D01*
X021375Y008025D02*
X021825Y008025D01*
X021600Y008335D02*
X021600Y008636D01*
X021825Y008561D02*
X021375Y008561D01*
X021600Y008335D01*
X022200Y007645D02*
X022200Y007487D01*
X022750Y007425D02*
X022750Y005775D01*
X022200Y005713D02*
X022200Y005555D01*
X022200Y006487D02*
X022200Y006713D01*
X022750Y005775D02*
X022702Y005740D01*
X022652Y005707D01*
X022600Y005676D01*
X022546Y005649D01*
X022491Y005625D01*
X022434Y005605D01*
X022377Y005587D01*
X022319Y005573D01*
X022260Y005562D01*
X022200Y005555D01*
X022138Y005551D01*
X022075Y005550D01*
X022013Y005554D01*
X021951Y005561D01*
X021890Y005571D01*
X021829Y005586D01*
X021769Y005604D01*
X021710Y005625D01*
X021653Y005650D01*
X021598Y005678D01*
X021544Y005709D01*
X021492Y005744D01*
X021442Y005782D01*
X021395Y005822D01*
X021350Y005866D01*
X021307Y005911D01*
X021268Y005960D01*
X021231Y006010D01*
X021198Y006063D01*
X021167Y006117D01*
X021140Y006174D01*
X021117Y006231D01*
X021097Y006290D01*
X021097Y006910D02*
X021117Y006970D01*
X021141Y007029D01*
X021169Y007086D01*
X021200Y007141D01*
X021235Y007195D01*
X021272Y007246D01*
X021313Y007295D01*
X021357Y007341D01*
X021403Y007385D01*
X021452Y007426D01*
X021503Y007464D01*
X021556Y007498D01*
X021612Y007530D01*
X021669Y007557D01*
X021728Y007582D01*
X021788Y007602D01*
X021849Y007620D01*
X021911Y007633D01*
X021974Y007642D01*
X022037Y007648D01*
X022101Y007650D01*
X022165Y007648D01*
X022228Y007642D01*
X022291Y007633D01*
X022353Y007619D01*
X022414Y007602D01*
X022474Y007581D01*
X022533Y007557D01*
X022590Y007529D01*
X022646Y007497D01*
X022699Y007462D01*
X022750Y007425D01*
X025600Y004600D02*
X025602Y004650D01*
X025608Y004699D01*
X025618Y004748D01*
X025631Y004795D01*
X025649Y004842D01*
X025670Y004887D01*
X025694Y004930D01*
X025722Y004971D01*
X025753Y005010D01*
X025787Y005046D01*
X025824Y005080D01*
X025864Y005110D01*
X025905Y005137D01*
X025949Y005161D01*
X025994Y005181D01*
X026041Y005197D01*
X026089Y005210D01*
X026138Y005219D01*
X026188Y005224D01*
X026237Y005225D01*
X026287Y005222D01*
X026336Y005215D01*
X026385Y005204D01*
X026432Y005190D01*
X026478Y005171D01*
X026523Y005149D01*
X026566Y005124D01*
X026606Y005095D01*
X026644Y005063D01*
X026680Y005029D01*
X026713Y004991D01*
X026742Y004951D01*
X026768Y004909D01*
X026791Y004865D01*
X026810Y004819D01*
X026826Y004772D01*
X026838Y004723D01*
X026846Y004674D01*
X026850Y004625D01*
X026850Y004575D01*
X026846Y004526D01*
X026838Y004477D01*
X026826Y004428D01*
X026810Y004381D01*
X026791Y004335D01*
X026768Y004291D01*
X026742Y004249D01*
X026713Y004209D01*
X026680Y004171D01*
X026644Y004137D01*
X026606Y004105D01*
X026566Y004076D01*
X026523Y004051D01*
X026478Y004029D01*
X026432Y004010D01*
X026385Y003996D01*
X026336Y003985D01*
X026287Y003978D01*
X026237Y003975D01*
X026188Y003976D01*
X026138Y003981D01*
X026089Y003990D01*
X026041Y004003D01*
X025994Y004019D01*
X025949Y004039D01*
X025905Y004063D01*
X025864Y004090D01*
X025824Y004120D01*
X025787Y004154D01*
X025753Y004190D01*
X025722Y004229D01*
X025694Y004270D01*
X025670Y004313D01*
X025649Y004358D01*
X025631Y004405D01*
X025618Y004452D01*
X025608Y004501D01*
X025602Y004550D01*
X025600Y004600D01*
X024975Y003350D02*
X024975Y025975D01*
X029600Y025975D01*
X029600Y024975D01*
X032475Y024975D01*
X032475Y025975D01*
X037225Y025975D01*
X037225Y003350D01*
X034600Y003350D01*
X034600Y006475D01*
X034475Y006475D01*
X033725Y006475D01*
X033725Y006975D01*
X034475Y006975D01*
X034725Y006975D01*
X034725Y006475D01*
X034600Y006475D01*
X034475Y006475D02*
X034445Y006477D01*
X034415Y006482D01*
X034386Y006491D01*
X034359Y006504D01*
X034333Y006519D01*
X034309Y006538D01*
X034288Y006559D01*
X034269Y006583D01*
X034254Y006609D01*
X034241Y006636D01*
X034232Y006665D01*
X034227Y006695D01*
X034225Y006725D01*
X034227Y006755D01*
X034232Y006785D01*
X034241Y006814D01*
X034254Y006841D01*
X034269Y006867D01*
X034288Y006891D01*
X034309Y006912D01*
X034333Y006931D01*
X034359Y006946D01*
X034386Y006959D01*
X034415Y006968D01*
X034445Y006973D01*
X034475Y006975D01*
X034475Y007225D02*
X034725Y007225D01*
X034725Y007725D01*
X034475Y007725D01*
X033725Y007725D01*
X033725Y007225D01*
X034475Y007225D01*
X034445Y007227D01*
X034415Y007232D01*
X034386Y007241D01*
X034359Y007254D01*
X034333Y007269D01*
X034309Y007288D01*
X034288Y007309D01*
X034269Y007333D01*
X034254Y007359D01*
X034241Y007386D01*
X034232Y007415D01*
X034227Y007445D01*
X034225Y007475D01*
X034227Y007505D01*
X034232Y007535D01*
X034241Y007564D01*
X034254Y007591D01*
X034269Y007617D01*
X034288Y007641D01*
X034309Y007662D01*
X034333Y007681D01*
X034359Y007696D01*
X034386Y007709D01*
X034415Y007718D01*
X034445Y007723D01*
X034475Y007725D01*
X034475Y007975D02*
X034725Y007975D01*
X034725Y008475D01*
X034475Y008475D01*
X033725Y008475D01*
X033725Y007975D01*
X034475Y007975D01*
X034445Y007977D01*
X034415Y007982D01*
X034386Y007991D01*
X034359Y008004D01*
X034333Y008019D01*
X034309Y008038D01*
X034288Y008059D01*
X034269Y008083D01*
X034254Y008109D01*
X034241Y008136D01*
X034232Y008165D01*
X034227Y008195D01*
X034225Y008225D01*
X034227Y008255D01*
X034232Y008285D01*
X034241Y008314D01*
X034254Y008341D01*
X034269Y008367D01*
X034288Y008391D01*
X034309Y008412D01*
X034333Y008431D01*
X034359Y008446D01*
X034386Y008459D01*
X034415Y008468D01*
X034445Y008473D01*
X034475Y008475D01*
X034475Y008725D02*
X034725Y008725D01*
X034725Y009225D01*
X034475Y009225D01*
X033725Y009225D01*
X033725Y008725D01*
X034475Y008725D01*
X034445Y008727D01*
X034415Y008732D01*
X034386Y008741D01*
X034359Y008754D01*
X034333Y008769D01*
X034309Y008788D01*
X034288Y008809D01*
X034269Y008833D01*
X034254Y008859D01*
X034241Y008886D01*
X034232Y008915D01*
X034227Y008945D01*
X034225Y008975D01*
X034227Y009005D01*
X034232Y009035D01*
X034241Y009064D01*
X034254Y009091D01*
X034269Y009117D01*
X034288Y009141D01*
X034309Y009162D01*
X034333Y009181D01*
X034359Y009196D01*
X034386Y009209D01*
X034415Y009218D01*
X034445Y009223D01*
X034475Y009225D01*
X034475Y009475D02*
X034725Y009475D01*
X034725Y009975D01*
X034475Y009975D01*
X033725Y009975D01*
X033725Y009475D01*
X034475Y009475D01*
X034445Y009477D01*
X034415Y009482D01*
X034386Y009491D01*
X034359Y009504D01*
X034333Y009519D01*
X034309Y009538D01*
X034288Y009559D01*
X034269Y009583D01*
X034254Y009609D01*
X034241Y009636D01*
X034232Y009665D01*
X034227Y009695D01*
X034225Y009725D01*
X034227Y009755D01*
X034232Y009785D01*
X034241Y009814D01*
X034254Y009841D01*
X034269Y009867D01*
X034288Y009891D01*
X034309Y009912D01*
X034333Y009931D01*
X034359Y009946D01*
X034386Y009959D01*
X034415Y009968D01*
X034445Y009973D01*
X034475Y009975D01*
X034475Y010225D02*
X034725Y010225D01*
X034725Y010725D01*
X034475Y010725D01*
X033725Y010725D01*
X033725Y010225D01*
X034475Y010225D01*
X034445Y010227D01*
X034415Y010232D01*
X034386Y010241D01*
X034359Y010254D01*
X034333Y010269D01*
X034309Y010288D01*
X034288Y010309D01*
X034269Y010333D01*
X034254Y010359D01*
X034241Y010386D01*
X034232Y010415D01*
X034227Y010445D01*
X034225Y010475D01*
X034227Y010505D01*
X034232Y010535D01*
X034241Y010564D01*
X034254Y010591D01*
X034269Y010617D01*
X034288Y010641D01*
X034309Y010662D01*
X034333Y010681D01*
X034359Y010696D01*
X034386Y010709D01*
X034415Y010718D01*
X034445Y010723D01*
X034475Y010725D01*
X034475Y010975D02*
X034725Y010975D01*
X034725Y011475D01*
X034475Y011475D01*
X033725Y011475D01*
X033725Y010975D01*
X034475Y010975D01*
X034445Y010977D01*
X034415Y010982D01*
X034386Y010991D01*
X034359Y011004D01*
X034333Y011019D01*
X034309Y011038D01*
X034288Y011059D01*
X034269Y011083D01*
X034254Y011109D01*
X034241Y011136D01*
X034232Y011165D01*
X034227Y011195D01*
X034225Y011225D01*
X034227Y011255D01*
X034232Y011285D01*
X034241Y011314D01*
X034254Y011341D01*
X034269Y011367D01*
X034288Y011391D01*
X034309Y011412D01*
X034333Y011431D01*
X034359Y011446D01*
X034386Y011459D01*
X034415Y011468D01*
X034445Y011473D01*
X034475Y011475D01*
X034475Y011725D02*
X034725Y011725D01*
X034725Y012225D01*
X034475Y012225D01*
X033725Y012225D01*
X033725Y011725D01*
X034475Y011725D01*
X034445Y011727D01*
X034415Y011732D01*
X034386Y011741D01*
X034359Y011754D01*
X034333Y011769D01*
X034309Y011788D01*
X034288Y011809D01*
X034269Y011833D01*
X034254Y011859D01*
X034241Y011886D01*
X034232Y011915D01*
X034227Y011945D01*
X034225Y011975D01*
X034227Y012005D01*
X034232Y012035D01*
X034241Y012064D01*
X034254Y012091D01*
X034269Y012117D01*
X034288Y012141D01*
X034309Y012162D01*
X034333Y012181D01*
X034359Y012196D01*
X034386Y012209D01*
X034415Y012218D01*
X034445Y012223D01*
X034475Y012225D01*
X033850Y011975D02*
X033852Y011997D01*
X033858Y012018D01*
X033867Y012037D01*
X033879Y012055D01*
X033895Y012071D01*
X033912Y012083D01*
X033932Y012092D01*
X033953Y012098D01*
X033975Y012100D01*
X033997Y012098D01*
X034018Y012092D01*
X034037Y012083D01*
X034055Y012071D01*
X034071Y012055D01*
X034083Y012037D01*
X034092Y012018D01*
X034098Y011997D01*
X034100Y011975D01*
X034098Y011953D01*
X034092Y011932D01*
X034083Y011913D01*
X034071Y011895D01*
X034055Y011879D01*
X034038Y011867D01*
X034018Y011858D01*
X033997Y011852D01*
X033975Y011850D01*
X033953Y011852D01*
X033932Y011858D01*
X033912Y011867D01*
X033895Y011879D01*
X033879Y011895D01*
X033867Y011912D01*
X033858Y011932D01*
X033852Y011953D01*
X033850Y011975D01*
X033600Y012100D02*
X033600Y006600D01*
X028600Y006600D01*
X028600Y012100D01*
X033600Y012100D01*
X033225Y012225D02*
X033225Y012975D01*
X033225Y013225D01*
X032725Y013225D01*
X032725Y012975D01*
X032725Y012225D01*
X033225Y012225D01*
X032850Y012475D02*
X032852Y012497D01*
X032858Y012518D01*
X032867Y012537D01*
X032879Y012555D01*
X032895Y012571D01*
X032912Y012583D01*
X032932Y012592D01*
X032953Y012598D01*
X032975Y012600D01*
X032997Y012598D01*
X033018Y012592D01*
X033037Y012583D01*
X033055Y012571D01*
X033071Y012555D01*
X033083Y012537D01*
X033092Y012518D01*
X033098Y012497D01*
X033100Y012475D01*
X033098Y012453D01*
X033092Y012432D01*
X033083Y012413D01*
X033071Y012395D01*
X033055Y012379D01*
X033038Y012367D01*
X033018Y012358D01*
X032997Y012352D01*
X032975Y012350D01*
X032953Y012352D01*
X032932Y012358D01*
X032912Y012367D01*
X032895Y012379D01*
X032879Y012395D01*
X032867Y012412D01*
X032858Y012432D01*
X032852Y012453D01*
X032850Y012475D01*
X032475Y012225D02*
X032475Y012975D01*
X032475Y013225D01*
X031975Y013225D01*
X031975Y012975D01*
X031975Y012225D01*
X032475Y012225D01*
X032100Y012475D02*
X032102Y012497D01*
X032108Y012518D01*
X032117Y012537D01*
X032129Y012555D01*
X032145Y012571D01*
X032162Y012583D01*
X032182Y012592D01*
X032203Y012598D01*
X032225Y012600D01*
X032247Y012598D01*
X032268Y012592D01*
X032287Y012583D01*
X032305Y012571D01*
X032321Y012555D01*
X032333Y012537D01*
X032342Y012518D01*
X032348Y012497D01*
X032350Y012475D01*
X032348Y012453D01*
X032342Y012432D01*
X032333Y012413D01*
X032321Y012395D01*
X032305Y012379D01*
X032288Y012367D01*
X032268Y012358D01*
X032247Y012352D01*
X032225Y012350D01*
X032203Y012352D01*
X032182Y012358D01*
X032162Y012367D01*
X032145Y012379D01*
X032129Y012395D01*
X032117Y012412D01*
X032108Y012432D01*
X032102Y012453D01*
X032100Y012475D01*
X031725Y012225D02*
X031725Y012975D01*
X031725Y013225D01*
X031225Y013225D01*
X031225Y012975D01*
X031225Y012225D01*
X031725Y012225D01*
X031350Y012475D02*
X031352Y012497D01*
X031358Y012518D01*
X031367Y012537D01*
X031379Y012555D01*
X031395Y012571D01*
X031412Y012583D01*
X031432Y012592D01*
X031453Y012598D01*
X031475Y012600D01*
X031497Y012598D01*
X031518Y012592D01*
X031537Y012583D01*
X031555Y012571D01*
X031571Y012555D01*
X031583Y012537D01*
X031592Y012518D01*
X031598Y012497D01*
X031600Y012475D01*
X031598Y012453D01*
X031592Y012432D01*
X031583Y012413D01*
X031571Y012395D01*
X031555Y012379D01*
X031538Y012367D01*
X031518Y012358D01*
X031497Y012352D01*
X031475Y012350D01*
X031453Y012352D01*
X031432Y012358D01*
X031412Y012367D01*
X031395Y012379D01*
X031379Y012395D01*
X031367Y012412D01*
X031358Y012432D01*
X031352Y012453D01*
X031350Y012475D01*
X030975Y012225D02*
X030975Y012975D01*
X030975Y013225D01*
X030475Y013225D01*
X030475Y012975D01*
X030475Y012225D01*
X030975Y012225D01*
X030600Y012475D02*
X030602Y012497D01*
X030608Y012518D01*
X030617Y012537D01*
X030629Y012555D01*
X030645Y012571D01*
X030662Y012583D01*
X030682Y012592D01*
X030703Y012598D01*
X030725Y012600D01*
X030747Y012598D01*
X030768Y012592D01*
X030787Y012583D01*
X030805Y012571D01*
X030821Y012555D01*
X030833Y012537D01*
X030842Y012518D01*
X030848Y012497D01*
X030850Y012475D01*
X030848Y012453D01*
X030842Y012432D01*
X030833Y012413D01*
X030821Y012395D01*
X030805Y012379D01*
X030788Y012367D01*
X030768Y012358D01*
X030747Y012352D01*
X030725Y012350D01*
X030703Y012352D01*
X030682Y012358D01*
X030662Y012367D01*
X030645Y012379D01*
X030629Y012395D01*
X030617Y012412D01*
X030608Y012432D01*
X030602Y012453D01*
X030600Y012475D01*
X030225Y012225D02*
X030225Y012975D01*
X030225Y013225D01*
X029725Y013225D01*
X029725Y012975D01*
X029725Y012225D01*
X030225Y012225D01*
X029850Y012475D02*
X029852Y012497D01*
X029858Y012518D01*
X029867Y012537D01*
X029879Y012555D01*
X029895Y012571D01*
X029912Y012583D01*
X029932Y012592D01*
X029953Y012598D01*
X029975Y012600D01*
X029997Y012598D01*
X030018Y012592D01*
X030037Y012583D01*
X030055Y012571D01*
X030071Y012555D01*
X030083Y012537D01*
X030092Y012518D01*
X030098Y012497D01*
X030100Y012475D01*
X030098Y012453D01*
X030092Y012432D01*
X030083Y012413D01*
X030071Y012395D01*
X030055Y012379D01*
X030038Y012367D01*
X030018Y012358D01*
X029997Y012352D01*
X029975Y012350D01*
X029953Y012352D01*
X029932Y012358D01*
X029912Y012367D01*
X029895Y012379D01*
X029879Y012395D01*
X029867Y012412D01*
X029858Y012432D01*
X029852Y012453D01*
X029850Y012475D01*
X029475Y012225D02*
X029475Y012975D01*
X029475Y013225D01*
X028975Y013225D01*
X028975Y012975D01*
X028975Y012225D01*
X029475Y012225D01*
X029100Y012475D02*
X029102Y012497D01*
X029108Y012518D01*
X029117Y012537D01*
X029129Y012555D01*
X029145Y012571D01*
X029162Y012583D01*
X029182Y012592D01*
X029203Y012598D01*
X029225Y012600D01*
X029247Y012598D01*
X029268Y012592D01*
X029287Y012583D01*
X029305Y012571D01*
X029321Y012555D01*
X029333Y012537D01*
X029342Y012518D01*
X029348Y012497D01*
X029350Y012475D01*
X029348Y012453D01*
X029342Y012432D01*
X029333Y012413D01*
X029321Y012395D01*
X029305Y012379D01*
X029288Y012367D01*
X029268Y012358D01*
X029247Y012352D01*
X029225Y012350D01*
X029203Y012352D01*
X029182Y012358D01*
X029162Y012367D01*
X029145Y012379D01*
X029129Y012395D01*
X029117Y012412D01*
X029108Y012432D01*
X029102Y012453D01*
X029100Y012475D01*
X028975Y012975D02*
X028977Y012945D01*
X028982Y012915D01*
X028991Y012886D01*
X029004Y012859D01*
X029019Y012833D01*
X029038Y012809D01*
X029059Y012788D01*
X029083Y012769D01*
X029109Y012754D01*
X029136Y012741D01*
X029165Y012732D01*
X029195Y012727D01*
X029225Y012725D01*
X029255Y012727D01*
X029285Y012732D01*
X029314Y012741D01*
X029341Y012754D01*
X029367Y012769D01*
X029391Y012788D01*
X029412Y012809D01*
X029431Y012833D01*
X029446Y012859D01*
X029459Y012886D01*
X029468Y012915D01*
X029473Y012945D01*
X029475Y012975D01*
X029725Y012975D02*
X029727Y012945D01*
X029732Y012915D01*
X029741Y012886D01*
X029754Y012859D01*
X029769Y012833D01*
X029788Y012809D01*
X029809Y012788D01*
X029833Y012769D01*
X029859Y012754D01*
X029886Y012741D01*
X029915Y012732D01*
X029945Y012727D01*
X029975Y012725D01*
X030005Y012727D01*
X030035Y012732D01*
X030064Y012741D01*
X030091Y012754D01*
X030117Y012769D01*
X030141Y012788D01*
X030162Y012809D01*
X030181Y012833D01*
X030196Y012859D01*
X030209Y012886D01*
X030218Y012915D01*
X030223Y012945D01*
X030225Y012975D01*
X030475Y012975D02*
X030477Y012945D01*
X030482Y012915D01*
X030491Y012886D01*
X030504Y012859D01*
X030519Y012833D01*
X030538Y012809D01*
X030559Y012788D01*
X030583Y012769D01*
X030609Y012754D01*
X030636Y012741D01*
X030665Y012732D01*
X030695Y012727D01*
X030725Y012725D01*
X030755Y012727D01*
X030785Y012732D01*
X030814Y012741D01*
X030841Y012754D01*
X030867Y012769D01*
X030891Y012788D01*
X030912Y012809D01*
X030931Y012833D01*
X030946Y012859D01*
X030959Y012886D01*
X030968Y012915D01*
X030973Y012945D01*
X030975Y012975D01*
X031225Y012975D02*
X031227Y012945D01*
X031232Y012915D01*
X031241Y012886D01*
X031254Y012859D01*
X031269Y012833D01*
X031288Y012809D01*
X031309Y012788D01*
X031333Y012769D01*
X031359Y012754D01*
X031386Y012741D01*
X031415Y012732D01*
X031445Y012727D01*
X031475Y012725D01*
X031505Y012727D01*
X031535Y012732D01*
X031564Y012741D01*
X031591Y012754D01*
X031617Y012769D01*
X031641Y012788D01*
X031662Y012809D01*
X031681Y012833D01*
X031696Y012859D01*
X031709Y012886D01*
X031718Y012915D01*
X031723Y012945D01*
X031725Y012975D01*
X031975Y012975D02*
X031977Y012945D01*
X031982Y012915D01*
X031991Y012886D01*
X032004Y012859D01*
X032019Y012833D01*
X032038Y012809D01*
X032059Y012788D01*
X032083Y012769D01*
X032109Y012754D01*
X032136Y012741D01*
X032165Y012732D01*
X032195Y012727D01*
X032225Y012725D01*
X032255Y012727D01*
X032285Y012732D01*
X032314Y012741D01*
X032341Y012754D01*
X032367Y012769D01*
X032391Y012788D01*
X032412Y012809D01*
X032431Y012833D01*
X032446Y012859D01*
X032459Y012886D01*
X032468Y012915D01*
X032473Y012945D01*
X032475Y012975D01*
X032725Y012975D02*
X032727Y012945D01*
X032732Y012915D01*
X032741Y012886D01*
X032754Y012859D01*
X032769Y012833D01*
X032788Y012809D01*
X032809Y012788D01*
X032833Y012769D01*
X032859Y012754D01*
X032886Y012741D01*
X032915Y012732D01*
X032945Y012727D01*
X032975Y012725D01*
X033005Y012727D01*
X033035Y012732D01*
X033064Y012741D01*
X033091Y012754D01*
X033117Y012769D01*
X033141Y012788D01*
X033162Y012809D01*
X033181Y012833D01*
X033196Y012859D01*
X033209Y012886D01*
X033218Y012915D01*
X033223Y012945D01*
X033225Y012975D01*
X033850Y011225D02*
X033852Y011247D01*
X033858Y011268D01*
X033867Y011287D01*
X033879Y011305D01*
X033895Y011321D01*
X033912Y011333D01*
X033932Y011342D01*
X033953Y011348D01*
X033975Y011350D01*
X033997Y011348D01*
X034018Y011342D01*
X034037Y011333D01*
X034055Y011321D01*
X034071Y011305D01*
X034083Y011287D01*
X034092Y011268D01*
X034098Y011247D01*
X034100Y011225D01*
X034098Y011203D01*
X034092Y011182D01*
X034083Y011163D01*
X034071Y011145D01*
X034055Y011129D01*
X034038Y011117D01*
X034018Y011108D01*
X033997Y011102D01*
X033975Y011100D01*
X033953Y011102D01*
X033932Y011108D01*
X033912Y011117D01*
X033895Y011129D01*
X033879Y011145D01*
X033867Y011162D01*
X033858Y011182D01*
X033852Y011203D01*
X033850Y011225D01*
X033850Y010475D02*
X033852Y010497D01*
X033858Y010518D01*
X033867Y010537D01*
X033879Y010555D01*
X033895Y010571D01*
X033912Y010583D01*
X033932Y010592D01*
X033953Y010598D01*
X033975Y010600D01*
X033997Y010598D01*
X034018Y010592D01*
X034037Y010583D01*
X034055Y010571D01*
X034071Y010555D01*
X034083Y010537D01*
X034092Y010518D01*
X034098Y010497D01*
X034100Y010475D01*
X034098Y010453D01*
X034092Y010432D01*
X034083Y010413D01*
X034071Y010395D01*
X034055Y010379D01*
X034038Y010367D01*
X034018Y010358D01*
X033997Y010352D01*
X033975Y010350D01*
X033953Y010352D01*
X033932Y010358D01*
X033912Y010367D01*
X033895Y010379D01*
X033879Y010395D01*
X033867Y010412D01*
X033858Y010432D01*
X033852Y010453D01*
X033850Y010475D01*
X033850Y009725D02*
X033852Y009747D01*
X033858Y009768D01*
X033867Y009787D01*
X033879Y009805D01*
X033895Y009821D01*
X033912Y009833D01*
X033932Y009842D01*
X033953Y009848D01*
X033975Y009850D01*
X033997Y009848D01*
X034018Y009842D01*
X034037Y009833D01*
X034055Y009821D01*
X034071Y009805D01*
X034083Y009787D01*
X034092Y009768D01*
X034098Y009747D01*
X034100Y009725D01*
X034098Y009703D01*
X034092Y009682D01*
X034083Y009663D01*
X034071Y009645D01*
X034055Y009629D01*
X034038Y009617D01*
X034018Y009608D01*
X033997Y009602D01*
X033975Y009600D01*
X033953Y009602D01*
X033932Y009608D01*
X033912Y009617D01*
X033895Y009629D01*
X033879Y009645D01*
X033867Y009662D01*
X033858Y009682D01*
X033852Y009703D01*
X033850Y009725D01*
X033850Y008975D02*
X033852Y008997D01*
X033858Y009018D01*
X033867Y009037D01*
X033879Y009055D01*
X033895Y009071D01*
X033912Y009083D01*
X033932Y009092D01*
X033953Y009098D01*
X033975Y009100D01*
X033997Y009098D01*
X034018Y009092D01*
X034037Y009083D01*
X034055Y009071D01*
X034071Y009055D01*
X034083Y009037D01*
X034092Y009018D01*
X034098Y008997D01*
X034100Y008975D01*
X034098Y008953D01*
X034092Y008932D01*
X034083Y008913D01*
X034071Y008895D01*
X034055Y008879D01*
X034038Y008867D01*
X034018Y008858D01*
X033997Y008852D01*
X033975Y008850D01*
X033953Y008852D01*
X033932Y008858D01*
X033912Y008867D01*
X033895Y008879D01*
X033879Y008895D01*
X033867Y008912D01*
X033858Y008932D01*
X033852Y008953D01*
X033850Y008975D01*
X033850Y008225D02*
X033852Y008247D01*
X033858Y008268D01*
X033867Y008287D01*
X033879Y008305D01*
X033895Y008321D01*
X033912Y008333D01*
X033932Y008342D01*
X033953Y008348D01*
X033975Y008350D01*
X033997Y008348D01*
X034018Y008342D01*
X034037Y008333D01*
X034055Y008321D01*
X034071Y008305D01*
X034083Y008287D01*
X034092Y008268D01*
X034098Y008247D01*
X034100Y008225D01*
X034098Y008203D01*
X034092Y008182D01*
X034083Y008163D01*
X034071Y008145D01*
X034055Y008129D01*
X034038Y008117D01*
X034018Y008108D01*
X033997Y008102D01*
X033975Y008100D01*
X033953Y008102D01*
X033932Y008108D01*
X033912Y008117D01*
X033895Y008129D01*
X033879Y008145D01*
X033867Y008162D01*
X033858Y008182D01*
X033852Y008203D01*
X033850Y008225D01*
X033850Y007475D02*
X033852Y007497D01*
X033858Y007518D01*
X033867Y007537D01*
X033879Y007555D01*
X033895Y007571D01*
X033912Y007583D01*
X033932Y007592D01*
X033953Y007598D01*
X033975Y007600D01*
X033997Y007598D01*
X034018Y007592D01*
X034037Y007583D01*
X034055Y007571D01*
X034071Y007555D01*
X034083Y007537D01*
X034092Y007518D01*
X034098Y007497D01*
X034100Y007475D01*
X034098Y007453D01*
X034092Y007432D01*
X034083Y007413D01*
X034071Y007395D01*
X034055Y007379D01*
X034038Y007367D01*
X034018Y007358D01*
X033997Y007352D01*
X033975Y007350D01*
X033953Y007352D01*
X033932Y007358D01*
X033912Y007367D01*
X033895Y007379D01*
X033879Y007395D01*
X033867Y007412D01*
X033858Y007432D01*
X033852Y007453D01*
X033850Y007475D01*
X033850Y006725D02*
X033852Y006747D01*
X033858Y006768D01*
X033867Y006787D01*
X033879Y006805D01*
X033895Y006821D01*
X033912Y006833D01*
X033932Y006842D01*
X033953Y006848D01*
X033975Y006850D01*
X033997Y006848D01*
X034018Y006842D01*
X034037Y006833D01*
X034055Y006821D01*
X034071Y006805D01*
X034083Y006787D01*
X034092Y006768D01*
X034098Y006747D01*
X034100Y006725D01*
X034098Y006703D01*
X034092Y006682D01*
X034083Y006663D01*
X034071Y006645D01*
X034055Y006629D01*
X034038Y006617D01*
X034018Y006608D01*
X033997Y006602D01*
X033975Y006600D01*
X033953Y006602D01*
X033932Y006608D01*
X033912Y006617D01*
X033895Y006629D01*
X033879Y006645D01*
X033867Y006662D01*
X033858Y006682D01*
X033852Y006703D01*
X033850Y006725D01*
X033350Y006100D02*
X033350Y003225D01*
X032600Y003225D01*
X032600Y004975D01*
X032350Y004975D01*
X032350Y003225D01*
X031600Y003225D01*
X031600Y004975D01*
X031350Y004975D01*
X031350Y003225D01*
X030600Y003225D01*
X030600Y004975D01*
X030350Y004975D01*
X030350Y003225D01*
X028350Y003225D01*
X028350Y003475D01*
X030100Y003475D01*
X030100Y005225D01*
X030850Y005225D01*
X030850Y003475D01*
X031100Y003475D01*
X031100Y005225D01*
X031850Y005225D01*
X031850Y003475D01*
X032100Y003475D01*
X032100Y005225D01*
X032850Y005225D01*
X032850Y003475D01*
X033100Y003475D01*
X033100Y005850D01*
X029975Y005850D01*
X029975Y006100D01*
X033350Y006100D01*
X035350Y004600D02*
X035352Y004650D01*
X035358Y004699D01*
X035368Y004748D01*
X035381Y004795D01*
X035399Y004842D01*
X035420Y004887D01*
X035444Y004930D01*
X035472Y004971D01*
X035503Y005010D01*
X035537Y005046D01*
X035574Y005080D01*
X035614Y005110D01*
X035655Y005137D01*
X035699Y005161D01*
X035744Y005181D01*
X035791Y005197D01*
X035839Y005210D01*
X035888Y005219D01*
X035938Y005224D01*
X035987Y005225D01*
X036037Y005222D01*
X036086Y005215D01*
X036135Y005204D01*
X036182Y005190D01*
X036228Y005171D01*
X036273Y005149D01*
X036316Y005124D01*
X036356Y005095D01*
X036394Y005063D01*
X036430Y005029D01*
X036463Y004991D01*
X036492Y004951D01*
X036518Y004909D01*
X036541Y004865D01*
X036560Y004819D01*
X036576Y004772D01*
X036588Y004723D01*
X036596Y004674D01*
X036600Y004625D01*
X036600Y004575D01*
X036596Y004526D01*
X036588Y004477D01*
X036576Y004428D01*
X036560Y004381D01*
X036541Y004335D01*
X036518Y004291D01*
X036492Y004249D01*
X036463Y004209D01*
X036430Y004171D01*
X036394Y004137D01*
X036356Y004105D01*
X036316Y004076D01*
X036273Y004051D01*
X036228Y004029D01*
X036182Y004010D01*
X036135Y003996D01*
X036086Y003985D01*
X036037Y003978D01*
X035987Y003975D01*
X035938Y003976D01*
X035888Y003981D01*
X035839Y003990D01*
X035791Y004003D01*
X035744Y004019D01*
X035699Y004039D01*
X035655Y004063D01*
X035614Y004090D01*
X035574Y004120D01*
X035537Y004154D01*
X035503Y004190D01*
X035472Y004229D01*
X035444Y004270D01*
X035420Y004313D01*
X035399Y004358D01*
X035381Y004405D01*
X035368Y004452D01*
X035358Y004501D01*
X035352Y004550D01*
X035350Y004600D01*
X034600Y003350D02*
X034600Y002975D01*
X027600Y002975D01*
X027600Y003350D01*
X027600Y006475D01*
X027475Y006475D01*
X027475Y006975D01*
X027725Y006975D01*
X028475Y006975D01*
X028475Y006475D01*
X027725Y006475D01*
X027600Y006475D01*
X027725Y006475D02*
X027755Y006477D01*
X027785Y006482D01*
X027814Y006491D01*
X027841Y006504D01*
X027867Y006519D01*
X027891Y006538D01*
X027912Y006559D01*
X027931Y006583D01*
X027946Y006609D01*
X027959Y006636D01*
X027968Y006665D01*
X027973Y006695D01*
X027975Y006725D01*
X027973Y006755D01*
X027968Y006785D01*
X027959Y006814D01*
X027946Y006841D01*
X027931Y006867D01*
X027912Y006891D01*
X027891Y006912D01*
X027867Y006931D01*
X027841Y006946D01*
X027814Y006959D01*
X027785Y006968D01*
X027755Y006973D01*
X027725Y006975D01*
X027725Y007225D02*
X027475Y007225D01*
X027475Y007725D01*
X027725Y007725D01*
X028475Y007725D01*
X028475Y007225D01*
X027725Y007225D01*
X027755Y007227D01*
X027785Y007232D01*
X027814Y007241D01*
X027841Y007254D01*
X027867Y007269D01*
X027891Y007288D01*
X027912Y007309D01*
X027931Y007333D01*
X027946Y007359D01*
X027959Y007386D01*
X027968Y007415D01*
X027973Y007445D01*
X027975Y007475D01*
X027973Y007505D01*
X027968Y007535D01*
X027959Y007564D01*
X027946Y007591D01*
X027931Y007617D01*
X027912Y007641D01*
X027891Y007662D01*
X027867Y007681D01*
X027841Y007696D01*
X027814Y007709D01*
X027785Y007718D01*
X027755Y007723D01*
X027725Y007725D01*
X027725Y007975D02*
X027475Y007975D01*
X027475Y008475D01*
X027725Y008475D01*
X028475Y008475D01*
X028475Y007975D01*
X027725Y007975D01*
X027755Y007977D01*
X027785Y007982D01*
X027814Y007991D01*
X027841Y008004D01*
X027867Y008019D01*
X027891Y008038D01*
X027912Y008059D01*
X027931Y008083D01*
X027946Y008109D01*
X027959Y008136D01*
X027968Y008165D01*
X027973Y008195D01*
X027975Y008225D01*
X027973Y008255D01*
X027968Y008285D01*
X027959Y008314D01*
X027946Y008341D01*
X027931Y008367D01*
X027912Y008391D01*
X027891Y008412D01*
X027867Y008431D01*
X027841Y008446D01*
X027814Y008459D01*
X027785Y008468D01*
X027755Y008473D01*
X027725Y008475D01*
X027725Y008725D02*
X027475Y008725D01*
X027475Y009225D01*
X027725Y009225D01*
X028475Y009225D01*
X028475Y008725D01*
X027725Y008725D01*
X027755Y008727D01*
X027785Y008732D01*
X027814Y008741D01*
X027841Y008754D01*
X027867Y008769D01*
X027891Y008788D01*
X027912Y008809D01*
X027931Y008833D01*
X027946Y008859D01*
X027959Y008886D01*
X027968Y008915D01*
X027973Y008945D01*
X027975Y008975D01*
X027973Y009005D01*
X027968Y009035D01*
X027959Y009064D01*
X027946Y009091D01*
X027931Y009117D01*
X027912Y009141D01*
X027891Y009162D01*
X027867Y009181D01*
X027841Y009196D01*
X027814Y009209D01*
X027785Y009218D01*
X027755Y009223D01*
X027725Y009225D01*
X027725Y009475D02*
X027475Y009475D01*
X027475Y009975D01*
X027725Y009975D01*
X028475Y009975D01*
X028475Y009475D01*
X027725Y009475D01*
X027755Y009477D01*
X027785Y009482D01*
X027814Y009491D01*
X027841Y009504D01*
X027867Y009519D01*
X027891Y009538D01*
X027912Y009559D01*
X027931Y009583D01*
X027946Y009609D01*
X027959Y009636D01*
X027968Y009665D01*
X027973Y009695D01*
X027975Y009725D01*
X027973Y009755D01*
X027968Y009785D01*
X027959Y009814D01*
X027946Y009841D01*
X027931Y009867D01*
X027912Y009891D01*
X027891Y009912D01*
X027867Y009931D01*
X027841Y009946D01*
X027814Y009959D01*
X027785Y009968D01*
X027755Y009973D01*
X027725Y009975D01*
X027725Y010225D02*
X027475Y010225D01*
X027475Y010725D01*
X027725Y010725D01*
X028475Y010725D01*
X028475Y010225D01*
X027725Y010225D01*
X027755Y010227D01*
X027785Y010232D01*
X027814Y010241D01*
X027841Y010254D01*
X027867Y010269D01*
X027891Y010288D01*
X027912Y010309D01*
X027931Y010333D01*
X027946Y010359D01*
X027959Y010386D01*
X027968Y010415D01*
X027973Y010445D01*
X027975Y010475D01*
X027973Y010505D01*
X027968Y010535D01*
X027959Y010564D01*
X027946Y010591D01*
X027931Y010617D01*
X027912Y010641D01*
X027891Y010662D01*
X027867Y010681D01*
X027841Y010696D01*
X027814Y010709D01*
X027785Y010718D01*
X027755Y010723D01*
X027725Y010725D01*
X027725Y010975D02*
X027475Y010975D01*
X027475Y011475D01*
X027725Y011475D01*
X028475Y011475D01*
X028475Y010975D01*
X027725Y010975D01*
X027755Y010977D01*
X027785Y010982D01*
X027814Y010991D01*
X027841Y011004D01*
X027867Y011019D01*
X027891Y011038D01*
X027912Y011059D01*
X027931Y011083D01*
X027946Y011109D01*
X027959Y011136D01*
X027968Y011165D01*
X027973Y011195D01*
X027975Y011225D01*
X027973Y011255D01*
X027968Y011285D01*
X027959Y011314D01*
X027946Y011341D01*
X027931Y011367D01*
X027912Y011391D01*
X027891Y011412D01*
X027867Y011431D01*
X027841Y011446D01*
X027814Y011459D01*
X027785Y011468D01*
X027755Y011473D01*
X027725Y011475D01*
X027725Y011725D02*
X027475Y011725D01*
X027475Y012225D01*
X027725Y012225D01*
X028475Y012225D01*
X028475Y011725D01*
X027725Y011725D01*
X027755Y011727D01*
X027785Y011732D01*
X027814Y011741D01*
X027841Y011754D01*
X027867Y011769D01*
X027891Y011788D01*
X027912Y011809D01*
X027931Y011833D01*
X027946Y011859D01*
X027959Y011886D01*
X027968Y011915D01*
X027973Y011945D01*
X027975Y011975D01*
X027973Y012005D01*
X027968Y012035D01*
X027959Y012064D01*
X027946Y012091D01*
X027931Y012117D01*
X027912Y012141D01*
X027891Y012162D01*
X027867Y012181D01*
X027841Y012196D01*
X027814Y012209D01*
X027785Y012218D01*
X027755Y012223D01*
X027725Y012225D01*
X028100Y011975D02*
X028102Y011997D01*
X028108Y012018D01*
X028117Y012037D01*
X028129Y012055D01*
X028145Y012071D01*
X028162Y012083D01*
X028182Y012092D01*
X028203Y012098D01*
X028225Y012100D01*
X028247Y012098D01*
X028268Y012092D01*
X028287Y012083D01*
X028305Y012071D01*
X028321Y012055D01*
X028333Y012037D01*
X028342Y012018D01*
X028348Y011997D01*
X028350Y011975D01*
X028348Y011953D01*
X028342Y011932D01*
X028333Y011913D01*
X028321Y011895D01*
X028305Y011879D01*
X028288Y011867D01*
X028268Y011858D01*
X028247Y011852D01*
X028225Y011850D01*
X028203Y011852D01*
X028182Y011858D01*
X028162Y011867D01*
X028145Y011879D01*
X028129Y011895D01*
X028117Y011912D01*
X028108Y011932D01*
X028102Y011953D01*
X028100Y011975D01*
X028100Y011225D02*
X028102Y011247D01*
X028108Y011268D01*
X028117Y011287D01*
X028129Y011305D01*
X028145Y011321D01*
X028162Y011333D01*
X028182Y011342D01*
X028203Y011348D01*
X028225Y011350D01*
X028247Y011348D01*
X028268Y011342D01*
X028287Y011333D01*
X028305Y011321D01*
X028321Y011305D01*
X028333Y011287D01*
X028342Y011268D01*
X028348Y011247D01*
X028350Y011225D01*
X028348Y011203D01*
X028342Y011182D01*
X028333Y011163D01*
X028321Y011145D01*
X028305Y011129D01*
X028288Y011117D01*
X028268Y011108D01*
X028247Y011102D01*
X028225Y011100D01*
X028203Y011102D01*
X028182Y011108D01*
X028162Y011117D01*
X028145Y011129D01*
X028129Y011145D01*
X028117Y011162D01*
X028108Y011182D01*
X028102Y011203D01*
X028100Y011225D01*
X028100Y010475D02*
X028102Y010497D01*
X028108Y010518D01*
X028117Y010537D01*
X028129Y010555D01*
X028145Y010571D01*
X028162Y010583D01*
X028182Y010592D01*
X028203Y010598D01*
X028225Y010600D01*
X028247Y010598D01*
X028268Y010592D01*
X028287Y010583D01*
X028305Y010571D01*
X028321Y010555D01*
X028333Y010537D01*
X028342Y010518D01*
X028348Y010497D01*
X028350Y010475D01*
X028348Y010453D01*
X028342Y010432D01*
X028333Y010413D01*
X028321Y010395D01*
X028305Y010379D01*
X028288Y010367D01*
X028268Y010358D01*
X028247Y010352D01*
X028225Y010350D01*
X028203Y010352D01*
X028182Y010358D01*
X028162Y010367D01*
X028145Y010379D01*
X028129Y010395D01*
X028117Y010412D01*
X028108Y010432D01*
X028102Y010453D01*
X028100Y010475D01*
X028100Y009725D02*
X028102Y009747D01*
X028108Y009768D01*
X028117Y009787D01*
X028129Y009805D01*
X028145Y009821D01*
X028162Y009833D01*
X028182Y009842D01*
X028203Y009848D01*
X028225Y009850D01*
X028247Y009848D01*
X028268Y009842D01*
X028287Y009833D01*
X028305Y009821D01*
X028321Y009805D01*
X028333Y009787D01*
X028342Y009768D01*
X028348Y009747D01*
X028350Y009725D01*
X028348Y009703D01*
X028342Y009682D01*
X028333Y009663D01*
X028321Y009645D01*
X028305Y009629D01*
X028288Y009617D01*
X028268Y009608D01*
X028247Y009602D01*
X028225Y009600D01*
X028203Y009602D01*
X028182Y009608D01*
X028162Y009617D01*
X028145Y009629D01*
X028129Y009645D01*
X028117Y009662D01*
X028108Y009682D01*
X028102Y009703D01*
X028100Y009725D01*
X028100Y008975D02*
X028102Y008997D01*
X028108Y009018D01*
X028117Y009037D01*
X028129Y009055D01*
X028145Y009071D01*
X028162Y009083D01*
X028182Y009092D01*
X028203Y009098D01*
X028225Y009100D01*
X028247Y009098D01*
X028268Y009092D01*
X028287Y009083D01*
X028305Y009071D01*
X028321Y009055D01*
X028333Y009037D01*
X028342Y009018D01*
X028348Y008997D01*
X028350Y008975D01*
X028348Y008953D01*
X028342Y008932D01*
X028333Y008913D01*
X028321Y008895D01*
X028305Y008879D01*
X028288Y008867D01*
X028268Y008858D01*
X028247Y008852D01*
X028225Y008850D01*
X028203Y008852D01*
X028182Y008858D01*
X028162Y008867D01*
X028145Y008879D01*
X028129Y008895D01*
X028117Y008912D01*
X028108Y008932D01*
X028102Y008953D01*
X028100Y008975D01*
X028100Y008225D02*
X028102Y008247D01*
X028108Y008268D01*
X028117Y008287D01*
X028129Y008305D01*
X028145Y008321D01*
X028162Y008333D01*
X028182Y008342D01*
X028203Y008348D01*
X028225Y008350D01*
X028247Y008348D01*
X028268Y008342D01*
X028287Y008333D01*
X028305Y008321D01*
X028321Y008305D01*
X028333Y008287D01*
X028342Y008268D01*
X028348Y008247D01*
X028350Y008225D01*
X028348Y008203D01*
X028342Y008182D01*
X028333Y008163D01*
X028321Y008145D01*
X028305Y008129D01*
X028288Y008117D01*
X028268Y008108D01*
X028247Y008102D01*
X028225Y008100D01*
X028203Y008102D01*
X028182Y008108D01*
X028162Y008117D01*
X028145Y008129D01*
X028129Y008145D01*
X028117Y008162D01*
X028108Y008182D01*
X028102Y008203D01*
X028100Y008225D01*
X028100Y007475D02*
X028102Y007497D01*
X028108Y007518D01*
X028117Y007537D01*
X028129Y007555D01*
X028145Y007571D01*
X028162Y007583D01*
X028182Y007592D01*
X028203Y007598D01*
X028225Y007600D01*
X028247Y007598D01*
X028268Y007592D01*
X028287Y007583D01*
X028305Y007571D01*
X028321Y007555D01*
X028333Y007537D01*
X028342Y007518D01*
X028348Y007497D01*
X028350Y007475D01*
X028348Y007453D01*
X028342Y007432D01*
X028333Y007413D01*
X028321Y007395D01*
X028305Y007379D01*
X028288Y007367D01*
X028268Y007358D01*
X028247Y007352D01*
X028225Y007350D01*
X028203Y007352D01*
X028182Y007358D01*
X028162Y007367D01*
X028145Y007379D01*
X028129Y007395D01*
X028117Y007412D01*
X028108Y007432D01*
X028102Y007453D01*
X028100Y007475D01*
X028100Y006725D02*
X028102Y006747D01*
X028108Y006768D01*
X028117Y006787D01*
X028129Y006805D01*
X028145Y006821D01*
X028162Y006833D01*
X028182Y006842D01*
X028203Y006848D01*
X028225Y006850D01*
X028247Y006848D01*
X028268Y006842D01*
X028287Y006833D01*
X028305Y006821D01*
X028321Y006805D01*
X028333Y006787D01*
X028342Y006768D01*
X028348Y006747D01*
X028350Y006725D01*
X028348Y006703D01*
X028342Y006682D01*
X028333Y006663D01*
X028321Y006645D01*
X028305Y006629D01*
X028288Y006617D01*
X028268Y006608D01*
X028247Y006602D01*
X028225Y006600D01*
X028203Y006602D01*
X028182Y006608D01*
X028162Y006617D01*
X028145Y006629D01*
X028129Y006645D01*
X028117Y006662D01*
X028108Y006682D01*
X028102Y006703D01*
X028100Y006725D01*
X028350Y006100D02*
X028350Y005850D01*
X028850Y005850D01*
X028850Y006100D01*
X028350Y006100D01*
X027600Y003350D02*
X024975Y003350D01*
X022200Y013055D02*
X022200Y013213D01*
X022750Y013275D02*
X022750Y014925D01*
X022200Y014987D02*
X022200Y015145D01*
X021825Y015525D02*
X021375Y015525D01*
X021375Y015375D02*
X021375Y015675D01*
X021450Y015835D02*
X021375Y015910D01*
X021375Y016061D01*
X021450Y016136D01*
X021525Y016136D01*
X021600Y016061D01*
X021675Y016136D01*
X021750Y016136D01*
X021825Y016061D01*
X021825Y015910D01*
X021750Y015835D01*
X021600Y015986D02*
X021600Y016061D01*
X022200Y014213D02*
X022200Y013987D01*
X022750Y013275D02*
X022702Y013240D01*
X022652Y013207D01*
X022600Y013176D01*
X022546Y013149D01*
X022491Y013125D01*
X022434Y013105D01*
X022377Y013087D01*
X022319Y013073D01*
X022260Y013062D01*
X022200Y013055D01*
X022138Y013051D01*
X022075Y013050D01*
X022013Y013054D01*
X021951Y013061D01*
X021890Y013071D01*
X021829Y013086D01*
X021769Y013104D01*
X021710Y013125D01*
X021653Y013150D01*
X021598Y013178D01*
X021544Y013209D01*
X021492Y013244D01*
X021442Y013282D01*
X021395Y013322D01*
X021350Y013366D01*
X021307Y013411D01*
X021268Y013460D01*
X021231Y013510D01*
X021198Y013563D01*
X021167Y013617D01*
X021140Y013674D01*
X021117Y013731D01*
X021097Y013790D01*
X021097Y014410D02*
X021117Y014470D01*
X021141Y014529D01*
X021169Y014586D01*
X021200Y014641D01*
X021235Y014695D01*
X021272Y014746D01*
X021313Y014795D01*
X021357Y014841D01*
X021403Y014885D01*
X021452Y014926D01*
X021503Y014964D01*
X021556Y014998D01*
X021612Y015030D01*
X021669Y015057D01*
X021728Y015082D01*
X021788Y015102D01*
X021849Y015120D01*
X021911Y015133D01*
X021974Y015142D01*
X022037Y015148D01*
X022101Y015150D01*
X022165Y015148D01*
X022228Y015142D01*
X022291Y015133D01*
X022353Y015119D01*
X022414Y015102D01*
X022474Y015081D01*
X022533Y015057D01*
X022590Y015029D01*
X022646Y014997D01*
X022699Y014962D01*
X022750Y014925D01*
X018975Y013611D02*
X018975Y013460D01*
X018900Y013385D01*
X018975Y013225D02*
X018825Y013075D01*
X018825Y013150D02*
X018825Y012925D01*
X018975Y012925D02*
X018525Y012925D01*
X018525Y013150D01*
X018600Y013225D01*
X018750Y013225D01*
X018825Y013150D01*
X018600Y013385D02*
X018525Y013460D01*
X018525Y013611D01*
X018600Y013686D01*
X018675Y013686D01*
X018750Y013611D01*
X018825Y013686D01*
X018900Y013686D01*
X018975Y013611D01*
X018750Y013611D02*
X018750Y013536D01*
X018825Y020425D02*
X018825Y020650D01*
X018750Y020725D01*
X018600Y020725D01*
X018525Y020650D01*
X018525Y020425D01*
X018975Y020425D01*
X018825Y020575D02*
X018975Y020725D01*
X018975Y020885D02*
X018675Y021186D01*
X018600Y021186D01*
X018525Y021111D01*
X018525Y020960D01*
X018600Y020885D01*
X018975Y020885D02*
X018975Y021186D01*
X021375Y022875D02*
X021375Y023175D01*
X021375Y023025D02*
X021825Y023025D01*
X021825Y023335D02*
X021525Y023636D01*
X021450Y023636D01*
X021375Y023561D01*
X021375Y023410D01*
X021450Y023335D01*
X021825Y023335D02*
X021825Y023636D01*
X022200Y022645D02*
X022200Y022487D01*
X022750Y022425D02*
X022750Y020775D01*
X022200Y020713D02*
X022200Y020555D01*
X022200Y021487D02*
X022200Y021713D01*
X022750Y020775D02*
X022702Y020740D01*
X022652Y020707D01*
X022600Y020676D01*
X022546Y020649D01*
X022491Y020625D01*
X022434Y020605D01*
X022377Y020587D01*
X022319Y020573D01*
X022260Y020562D01*
X022200Y020555D01*
X022138Y020551D01*
X022075Y020550D01*
X022013Y020554D01*
X021951Y020561D01*
X021890Y020571D01*
X021829Y020586D01*
X021769Y020604D01*
X021710Y020625D01*
X021653Y020650D01*
X021598Y020678D01*
X021544Y020709D01*
X021492Y020744D01*
X021442Y020782D01*
X021395Y020822D01*
X021350Y020866D01*
X021307Y020911D01*
X021268Y020960D01*
X021231Y021010D01*
X021198Y021063D01*
X021167Y021117D01*
X021140Y021174D01*
X021117Y021231D01*
X021097Y021290D01*
X021097Y021910D02*
X021117Y021970D01*
X021141Y022029D01*
X021169Y022086D01*
X021200Y022141D01*
X021235Y022195D01*
X021272Y022246D01*
X021313Y022295D01*
X021357Y022341D01*
X021403Y022385D01*
X021452Y022426D01*
X021503Y022464D01*
X021556Y022498D01*
X021612Y022530D01*
X021669Y022557D01*
X021728Y022582D01*
X021788Y022602D01*
X021849Y022620D01*
X021911Y022633D01*
X021974Y022642D01*
X022037Y022648D01*
X022101Y022650D01*
X022165Y022648D01*
X022228Y022642D01*
X022291Y022633D01*
X022353Y022619D01*
X022414Y022602D01*
X022474Y022581D01*
X022533Y022557D01*
X022590Y022529D01*
X022646Y022497D01*
X022699Y022462D01*
X022750Y022425D01*
X025600Y024725D02*
X025602Y024775D01*
X025608Y024824D01*
X025618Y024873D01*
X025631Y024920D01*
X025649Y024967D01*
X025670Y025012D01*
X025694Y025055D01*
X025722Y025096D01*
X025753Y025135D01*
X025787Y025171D01*
X025824Y025205D01*
X025864Y025235D01*
X025905Y025262D01*
X025949Y025286D01*
X025994Y025306D01*
X026041Y025322D01*
X026089Y025335D01*
X026138Y025344D01*
X026188Y025349D01*
X026237Y025350D01*
X026287Y025347D01*
X026336Y025340D01*
X026385Y025329D01*
X026432Y025315D01*
X026478Y025296D01*
X026523Y025274D01*
X026566Y025249D01*
X026606Y025220D01*
X026644Y025188D01*
X026680Y025154D01*
X026713Y025116D01*
X026742Y025076D01*
X026768Y025034D01*
X026791Y024990D01*
X026810Y024944D01*
X026826Y024897D01*
X026838Y024848D01*
X026846Y024799D01*
X026850Y024750D01*
X026850Y024700D01*
X026846Y024651D01*
X026838Y024602D01*
X026826Y024553D01*
X026810Y024506D01*
X026791Y024460D01*
X026768Y024416D01*
X026742Y024374D01*
X026713Y024334D01*
X026680Y024296D01*
X026644Y024262D01*
X026606Y024230D01*
X026566Y024201D01*
X026523Y024176D01*
X026478Y024154D01*
X026432Y024135D01*
X026385Y024121D01*
X026336Y024110D01*
X026287Y024103D01*
X026237Y024100D01*
X026188Y024101D01*
X026138Y024106D01*
X026089Y024115D01*
X026041Y024128D01*
X025994Y024144D01*
X025949Y024164D01*
X025905Y024188D01*
X025864Y024215D01*
X025824Y024245D01*
X025787Y024279D01*
X025753Y024315D01*
X025722Y024354D01*
X025694Y024395D01*
X025670Y024438D01*
X025649Y024483D01*
X025631Y024530D01*
X025618Y024577D01*
X025608Y024626D01*
X025602Y024675D01*
X025600Y024725D01*
X027350Y025475D02*
X027350Y023725D01*
X028350Y023725D01*
X028350Y025475D01*
X027350Y025475D01*
X027571Y024600D02*
X027573Y024633D01*
X027579Y024666D01*
X027588Y024697D01*
X027602Y024727D01*
X027619Y024756D01*
X027639Y024782D01*
X027662Y024806D01*
X027687Y024827D01*
X027715Y024844D01*
X027745Y024859D01*
X027776Y024869D01*
X027809Y024876D01*
X027842Y024879D01*
X027875Y024878D01*
X027907Y024873D01*
X027939Y024864D01*
X027970Y024852D01*
X027999Y024836D01*
X028026Y024817D01*
X028050Y024794D01*
X028072Y024769D01*
X028090Y024742D01*
X028105Y024712D01*
X028117Y024681D01*
X028125Y024649D01*
X028129Y024617D01*
X028129Y024583D01*
X028125Y024551D01*
X028117Y024519D01*
X028105Y024488D01*
X028090Y024458D01*
X028072Y024431D01*
X028050Y024406D01*
X028026Y024383D01*
X027999Y024364D01*
X027970Y024348D01*
X027939Y024336D01*
X027907Y024327D01*
X027875Y024322D01*
X027842Y024321D01*
X027809Y024324D01*
X027776Y024331D01*
X027745Y024341D01*
X027715Y024356D01*
X027687Y024373D01*
X027662Y024394D01*
X027639Y024418D01*
X027619Y024444D01*
X027602Y024473D01*
X027588Y024503D01*
X027579Y024534D01*
X027573Y024567D01*
X027571Y024600D01*
X029600Y025975D02*
X029600Y026975D01*
X032475Y026975D01*
X032475Y025975D01*
X033850Y025475D02*
X034850Y025475D01*
X034850Y023725D01*
X033850Y023725D01*
X033850Y025475D01*
X034071Y024600D02*
X034073Y024633D01*
X034079Y024666D01*
X034088Y024697D01*
X034102Y024727D01*
X034119Y024756D01*
X034139Y024782D01*
X034162Y024806D01*
X034187Y024827D01*
X034215Y024844D01*
X034245Y024859D01*
X034276Y024869D01*
X034309Y024876D01*
X034342Y024879D01*
X034375Y024878D01*
X034407Y024873D01*
X034439Y024864D01*
X034470Y024852D01*
X034499Y024836D01*
X034526Y024817D01*
X034550Y024794D01*
X034572Y024769D01*
X034590Y024742D01*
X034605Y024712D01*
X034617Y024681D01*
X034625Y024649D01*
X034629Y024617D01*
X034629Y024583D01*
X034625Y024551D01*
X034617Y024519D01*
X034605Y024488D01*
X034590Y024458D01*
X034572Y024431D01*
X034550Y024406D01*
X034526Y024383D01*
X034499Y024364D01*
X034470Y024348D01*
X034439Y024336D01*
X034407Y024327D01*
X034375Y024322D01*
X034342Y024321D01*
X034309Y024324D01*
X034276Y024331D01*
X034245Y024341D01*
X034215Y024356D01*
X034187Y024373D01*
X034162Y024394D01*
X034139Y024418D01*
X034119Y024444D01*
X034102Y024473D01*
X034088Y024503D01*
X034079Y024534D01*
X034073Y024567D01*
X034071Y024600D01*
X035350Y024725D02*
X035352Y024775D01*
X035358Y024824D01*
X035368Y024873D01*
X035381Y024920D01*
X035399Y024967D01*
X035420Y025012D01*
X035444Y025055D01*
X035472Y025096D01*
X035503Y025135D01*
X035537Y025171D01*
X035574Y025205D01*
X035614Y025235D01*
X035655Y025262D01*
X035699Y025286D01*
X035744Y025306D01*
X035791Y025322D01*
X035839Y025335D01*
X035888Y025344D01*
X035938Y025349D01*
X035987Y025350D01*
X036037Y025347D01*
X036086Y025340D01*
X036135Y025329D01*
X036182Y025315D01*
X036228Y025296D01*
X036273Y025274D01*
X036316Y025249D01*
X036356Y025220D01*
X036394Y025188D01*
X036430Y025154D01*
X036463Y025116D01*
X036492Y025076D01*
X036518Y025034D01*
X036541Y024990D01*
X036560Y024944D01*
X036576Y024897D01*
X036588Y024848D01*
X036596Y024799D01*
X036600Y024750D01*
X036600Y024700D01*
X036596Y024651D01*
X036588Y024602D01*
X036576Y024553D01*
X036560Y024506D01*
X036541Y024460D01*
X036518Y024416D01*
X036492Y024374D01*
X036463Y024334D01*
X036430Y024296D01*
X036394Y024262D01*
X036356Y024230D01*
X036316Y024201D01*
X036273Y024176D01*
X036228Y024154D01*
X036182Y024135D01*
X036135Y024121D01*
X036086Y024110D01*
X036037Y024103D01*
X035987Y024100D01*
X035938Y024101D01*
X035888Y024106D01*
X035839Y024115D01*
X035791Y024128D01*
X035744Y024144D01*
X035699Y024164D01*
X035655Y024188D01*
X035614Y024215D01*
X035574Y024245D01*
X035537Y024279D01*
X035503Y024315D01*
X035472Y024354D01*
X035444Y024395D01*
X035420Y024438D01*
X035399Y024483D01*
X035381Y024530D01*
X035368Y024577D01*
X035358Y024626D01*
X035352Y024675D01*
X035350Y024725D01*
X034100Y022350D02*
X033850Y022350D01*
X033850Y021725D01*
X033725Y021725D02*
X033725Y022350D01*
X033475Y022350D01*
X033475Y021725D01*
X033350Y021725D02*
X033350Y022350D01*
X033100Y022350D01*
X033100Y021725D01*
X032975Y021725D02*
X032975Y022350D01*
X032725Y022350D01*
X032725Y021725D01*
X032600Y021725D02*
X032600Y022350D01*
X032350Y022350D01*
X032350Y021725D01*
X032225Y021725D02*
X032225Y022350D01*
X031975Y022350D01*
X031975Y021725D01*
X031850Y021725D02*
X031850Y022350D01*
X031600Y022350D01*
X031600Y021725D01*
X031475Y021725D02*
X031475Y022350D01*
X031225Y022350D01*
X031225Y021725D01*
X031100Y021725D02*
X034225Y021725D01*
X034225Y020350D01*
X031100Y020350D01*
X031100Y021725D01*
X031225Y020350D02*
X031225Y019725D01*
X031475Y019725D01*
X031475Y020350D01*
X031600Y020350D02*
X031600Y019725D01*
X031850Y019725D01*
X031850Y020350D01*
X031975Y020350D02*
X031975Y019725D01*
X032225Y019725D01*
X032225Y020350D01*
X032350Y020350D02*
X032350Y019725D01*
X032600Y019725D01*
X032600Y020350D01*
X032725Y020350D02*
X032725Y019725D01*
X032975Y019725D01*
X032975Y020350D01*
X033100Y020350D02*
X033100Y019725D01*
X033350Y019725D01*
X033350Y020350D01*
X033475Y020350D02*
X033475Y019725D01*
X033725Y019725D01*
X033725Y020350D01*
X033850Y020350D02*
X033850Y019725D01*
X034100Y019725D01*
X034100Y020350D01*
X034100Y021725D02*
X034100Y022350D01*
X033225Y016975D02*
X032350Y016975D01*
X032350Y015600D01*
X033225Y015600D01*
X033225Y016975D01*
X033100Y016850D02*
X032475Y016850D01*
X031850Y017225D02*
X031850Y016225D01*
X031350Y016225D01*
X031350Y017225D01*
X031850Y017225D01*
X031725Y017100D02*
X031475Y017100D01*
X030225Y016850D02*
X030225Y016475D01*
X029475Y016475D01*
X029475Y016225D01*
X030225Y016225D01*
X030225Y015850D01*
X029475Y015850D01*
X029475Y015600D01*
X030225Y015600D01*
X030225Y015225D01*
X029475Y015225D01*
X029475Y014975D01*
X028600Y014975D01*
X028600Y015475D01*
X027975Y015475D01*
X027975Y016600D01*
X028600Y016600D01*
X028600Y017100D01*
X029475Y017100D01*
X029475Y016850D01*
X030225Y016850D01*
X022200Y028055D02*
X022200Y028213D01*
X022750Y028275D02*
X022750Y029925D01*
X022200Y029987D02*
X022200Y030145D01*
X021825Y030525D02*
X021375Y030525D01*
X021375Y030375D02*
X021375Y030675D01*
X021525Y030835D02*
X021375Y030986D01*
X021825Y030986D01*
X021825Y031136D02*
X021825Y030835D01*
X022200Y029213D02*
X022200Y028987D01*
X022750Y028275D02*
X022702Y028240D01*
X022652Y028207D01*
X022600Y028176D01*
X022546Y028149D01*
X022491Y028125D01*
X022434Y028105D01*
X022377Y028087D01*
X022319Y028073D01*
X022260Y028062D01*
X022200Y028055D01*
X022138Y028051D01*
X022075Y028050D01*
X022013Y028054D01*
X021951Y028061D01*
X021890Y028071D01*
X021829Y028086D01*
X021769Y028104D01*
X021710Y028125D01*
X021653Y028150D01*
X021598Y028178D01*
X021544Y028209D01*
X021492Y028244D01*
X021442Y028282D01*
X021395Y028322D01*
X021350Y028366D01*
X021307Y028411D01*
X021268Y028460D01*
X021231Y028510D01*
X021198Y028563D01*
X021167Y028617D01*
X021140Y028674D01*
X021117Y028731D01*
X021097Y028790D01*
X021097Y029410D02*
X021117Y029470D01*
X021141Y029529D01*
X021169Y029586D01*
X021200Y029641D01*
X021235Y029695D01*
X021272Y029746D01*
X021313Y029795D01*
X021357Y029841D01*
X021403Y029885D01*
X021452Y029926D01*
X021503Y029964D01*
X021556Y029998D01*
X021612Y030030D01*
X021669Y030057D01*
X021728Y030082D01*
X021788Y030102D01*
X021849Y030120D01*
X021911Y030133D01*
X021974Y030142D01*
X022037Y030148D01*
X022101Y030150D01*
X022165Y030148D01*
X022228Y030142D01*
X022291Y030133D01*
X022353Y030119D01*
X022414Y030102D01*
X022474Y030081D01*
X022533Y030057D01*
X022590Y030029D01*
X022646Y029997D01*
X022699Y029962D01*
X022750Y029925D01*
X024125Y029745D02*
X024275Y029745D01*
X024200Y029745D02*
X024200Y030195D01*
X024125Y030195D02*
X024275Y030195D01*
X024432Y030120D02*
X024432Y029820D01*
X024507Y029745D01*
X024657Y029745D01*
X024732Y029820D01*
X024892Y029745D02*
X025193Y029745D01*
X025042Y029745D02*
X025042Y030195D01*
X024892Y030045D01*
X024732Y030120D02*
X024657Y030195D01*
X024507Y030195D01*
X024432Y030120D01*
X024250Y030400D02*
X024150Y030500D01*
X024100Y031650D01*
X024230Y030640D02*
X024232Y030660D01*
X024238Y030678D01*
X024247Y030696D01*
X024259Y030711D01*
X024274Y030723D01*
X024292Y030732D01*
X024310Y030738D01*
X024330Y030740D01*
X024350Y030738D01*
X024368Y030732D01*
X024386Y030723D01*
X024401Y030711D01*
X024413Y030696D01*
X024422Y030678D01*
X024428Y030660D01*
X024430Y030640D01*
X024428Y030620D01*
X024422Y030602D01*
X024413Y030584D01*
X024401Y030569D01*
X024386Y030557D01*
X024368Y030548D01*
X024350Y030542D01*
X024330Y030540D01*
X024310Y030542D01*
X024292Y030548D01*
X024274Y030557D01*
X024259Y030569D01*
X024247Y030584D01*
X024238Y030602D01*
X024232Y030620D01*
X024230Y030640D01*
X024250Y030400D02*
X027950Y030400D01*
X028050Y030500D01*
X028100Y031650D01*
X029580Y031780D02*
X029870Y031780D01*
X029720Y031930D02*
X029720Y031620D01*
X031375Y031725D02*
X031375Y031275D01*
X031675Y031275D01*
X031835Y031275D02*
X032136Y031275D01*
X032296Y031275D02*
X032521Y031275D01*
X032596Y031350D01*
X032596Y031650D01*
X032521Y031725D01*
X032296Y031725D01*
X032296Y031275D01*
X031986Y031500D02*
X031835Y031500D01*
X031835Y031725D02*
X031835Y031275D01*
X031835Y031725D02*
X032136Y031725D01*
X032756Y031575D02*
X032906Y031725D01*
X032906Y031275D01*
X032756Y031275D02*
X033056Y031275D01*
X032862Y033625D02*
X032475Y033625D01*
X032669Y033625D02*
X032669Y034205D01*
X032475Y034012D01*
X032282Y033528D02*
X031895Y033528D01*
X031702Y033625D02*
X031702Y033915D01*
X031605Y034012D01*
X031315Y034012D01*
X031315Y033625D01*
X031122Y033722D02*
X031122Y033915D01*
X031025Y034012D01*
X030832Y034012D01*
X030735Y033915D01*
X030735Y033722D01*
X030832Y033625D01*
X031025Y033625D01*
X031122Y033722D01*
X030542Y033625D02*
X030348Y033625D01*
X030445Y033625D02*
X030445Y034012D01*
X030348Y034012D01*
X030155Y034012D02*
X029865Y034012D01*
X029768Y033915D01*
X029865Y033818D01*
X030059Y033818D01*
X030155Y033722D01*
X030059Y033625D01*
X029768Y033625D01*
X029575Y034012D02*
X029479Y034012D01*
X029285Y033818D01*
X029285Y033625D02*
X029285Y034012D01*
X029092Y033915D02*
X029092Y033818D01*
X028705Y033818D01*
X028705Y033722D02*
X028705Y033915D01*
X028802Y034012D01*
X028995Y034012D01*
X029092Y033915D01*
X028995Y033625D02*
X028802Y033625D01*
X028705Y033722D01*
X028512Y033818D02*
X028512Y034205D01*
X028512Y033818D02*
X028318Y033625D01*
X028125Y033818D01*
X028125Y034205D01*
X030445Y034205D02*
X030445Y034302D01*
X030925Y029175D02*
X031150Y029175D01*
X031225Y029100D01*
X031225Y028950D01*
X031150Y028875D01*
X030925Y028875D01*
X030925Y028725D02*
X030925Y029175D01*
X031075Y028875D02*
X031225Y028725D01*
X031385Y028800D02*
X031460Y028725D01*
X031611Y028725D01*
X031686Y028800D01*
X031686Y028950D01*
X031611Y029025D01*
X031536Y029025D01*
X031385Y028950D01*
X031385Y029175D01*
X031686Y029175D01*
X018975Y028686D02*
X018975Y028385D01*
X018975Y028536D02*
X018525Y028536D01*
X018675Y028385D01*
X018750Y028225D02*
X018825Y028150D01*
X018825Y027925D01*
X018975Y027925D02*
X018525Y027925D01*
X018525Y028150D01*
X018600Y028225D01*
X018750Y028225D01*
X018825Y028075D02*
X018975Y028225D01*
D14*
X026449Y021754D02*
X026526Y021830D01*
X026679Y021830D01*
X026756Y021754D01*
X026756Y021677D01*
X026679Y021600D01*
X026756Y021523D01*
X026756Y021447D01*
X026679Y021370D01*
X026526Y021370D01*
X026449Y021447D01*
X026603Y021600D02*
X026679Y021600D01*
X026910Y021523D02*
X027063Y021370D01*
X027217Y021523D01*
X027217Y021830D01*
X026910Y021830D02*
X026910Y021523D01*
X026986Y020830D02*
X026910Y020754D01*
X026910Y020447D01*
X026986Y020370D01*
X027140Y020370D01*
X027217Y020447D01*
X027217Y020600D01*
X027063Y020600D01*
X027217Y020754D02*
X027140Y020830D01*
X026986Y020830D01*
X026910Y019830D02*
X027217Y019370D01*
X026910Y019370D02*
X027217Y019830D01*
X026756Y019830D02*
X026449Y019830D01*
X026603Y019830D02*
X026603Y019370D01*
X026679Y018830D02*
X026756Y018754D01*
X026756Y018600D01*
X026679Y018523D01*
X026449Y018523D01*
X026449Y018370D02*
X026449Y018830D01*
X026679Y018830D01*
X026910Y018830D02*
X027217Y018370D01*
X026910Y018370D02*
X027217Y018830D01*
X026756Y018370D02*
X026603Y018523D01*
X026679Y017830D02*
X026449Y017830D01*
X026449Y017370D01*
X026679Y017370D01*
X026756Y017447D01*
X026756Y017754D01*
X026679Y017830D01*
X026910Y017754D02*
X026910Y017677D01*
X026986Y017600D01*
X027140Y017600D01*
X027217Y017523D01*
X027217Y017447D01*
X027140Y017370D01*
X026986Y017370D01*
X026910Y017447D01*
X026910Y017523D01*
X026986Y017600D01*
X027140Y017600D02*
X027217Y017677D01*
X027217Y017754D01*
X027140Y017830D01*
X026986Y017830D01*
X026910Y017754D01*
X026910Y016830D02*
X027217Y016830D01*
X027217Y016754D01*
X026910Y016447D01*
X026910Y016370D01*
X026756Y016447D02*
X026756Y016754D01*
X026679Y016830D01*
X026449Y016830D01*
X026449Y016370D01*
X026679Y016370D01*
X026756Y016447D01*
X026679Y015830D02*
X026449Y015830D01*
X026449Y015370D01*
X026679Y015370D01*
X026756Y015447D01*
X026756Y015754D01*
X026679Y015830D01*
X026910Y015600D02*
X027140Y015600D01*
X027217Y015523D01*
X027217Y015447D01*
X027140Y015370D01*
X026986Y015370D01*
X026910Y015447D01*
X026910Y015600D01*
X027063Y015754D01*
X027217Y015830D01*
X027217Y014830D02*
X026910Y014830D01*
X026910Y014600D01*
X027063Y014677D01*
X027140Y014677D01*
X027217Y014600D01*
X027217Y014447D01*
X027140Y014370D01*
X026986Y014370D01*
X026910Y014447D01*
X026756Y014447D02*
X026756Y014754D01*
X026679Y014830D01*
X026449Y014830D01*
X026449Y014370D01*
X026679Y014370D01*
X026756Y014447D01*
X026986Y013830D02*
X026910Y013754D01*
X026910Y013447D01*
X026986Y013370D01*
X027140Y013370D01*
X027217Y013447D01*
X027217Y013600D01*
X027063Y013600D01*
X027217Y013754D02*
X027140Y013830D01*
X026986Y013830D01*
X027092Y012830D02*
X027092Y012523D01*
X026938Y012370D01*
X026785Y012523D01*
X026785Y012830D01*
X026631Y012754D02*
X026554Y012830D01*
X026401Y012830D01*
X026324Y012754D01*
X026478Y012600D02*
X026554Y012600D01*
X026631Y012523D01*
X026631Y012447D01*
X026554Y012370D01*
X026401Y012370D01*
X026324Y012447D01*
X026554Y012600D02*
X026631Y012677D01*
X026631Y012754D01*
X026554Y011830D02*
X026324Y011830D01*
X026324Y011370D01*
X026554Y011370D01*
X026631Y011447D01*
X026631Y011754D01*
X026554Y011830D01*
X026785Y011600D02*
X027092Y011600D01*
X027015Y011370D02*
X027015Y011830D01*
X026785Y011600D01*
X026861Y010830D02*
X026785Y010754D01*
X026861Y010830D02*
X027015Y010830D01*
X027092Y010754D01*
X027092Y010677D01*
X027015Y010600D01*
X027092Y010523D01*
X027092Y010447D01*
X027015Y010370D01*
X026861Y010370D01*
X026785Y010447D01*
X026631Y010447D02*
X026631Y010754D01*
X026554Y010830D01*
X026324Y010830D01*
X026324Y010370D01*
X026554Y010370D01*
X026631Y010447D01*
X026938Y010600D02*
X027015Y010600D01*
X027015Y009830D02*
X026861Y009830D01*
X026785Y009754D01*
X026631Y009754D02*
X026554Y009830D01*
X026324Y009830D01*
X026324Y009370D01*
X026554Y009370D01*
X026631Y009447D01*
X026631Y009754D01*
X027015Y009830D02*
X027092Y009754D01*
X027092Y009677D01*
X026785Y009370D01*
X027092Y009370D01*
X026938Y008830D02*
X026785Y008677D01*
X026631Y008754D02*
X026554Y008830D01*
X026324Y008830D01*
X026324Y008370D01*
X026554Y008370D01*
X026631Y008447D01*
X026631Y008754D01*
X026938Y008830D02*
X026938Y008370D01*
X026785Y008370D02*
X027092Y008370D01*
X027015Y007830D02*
X027092Y007754D01*
X026785Y007447D01*
X026861Y007370D01*
X027015Y007370D01*
X027092Y007447D01*
X027092Y007754D01*
X027015Y007830D02*
X026861Y007830D01*
X026785Y007754D01*
X026785Y007447D01*
X026631Y007447D02*
X026631Y007754D01*
X026554Y007830D01*
X026324Y007830D01*
X026324Y007370D01*
X026554Y007370D01*
X026631Y007447D01*
X026574Y005955D02*
X026651Y005879D01*
X026344Y005572D01*
X026421Y005495D01*
X026574Y005495D01*
X026651Y005572D01*
X026651Y005879D01*
X026574Y005955D02*
X026421Y005955D01*
X026344Y005879D01*
X026344Y005572D01*
X026804Y005572D02*
X026881Y005572D01*
X026881Y005495D01*
X026804Y005495D01*
X026804Y005572D01*
X027035Y005495D02*
X027342Y005495D01*
X027188Y005495D02*
X027188Y005955D01*
X027035Y005802D01*
X025270Y005802D02*
X025193Y005802D01*
X025040Y005648D01*
X025040Y005495D02*
X025040Y005802D01*
X024886Y005725D02*
X024886Y005648D01*
X024579Y005648D01*
X024579Y005572D02*
X024579Y005725D01*
X024656Y005802D01*
X024809Y005802D01*
X024886Y005725D01*
X024809Y005495D02*
X024656Y005495D01*
X024579Y005572D01*
X024426Y005648D02*
X024426Y005955D01*
X024426Y005648D02*
X024272Y005495D01*
X024119Y005648D01*
X024119Y005955D01*
X034824Y007370D02*
X034824Y007677D01*
X034978Y007830D01*
X035131Y007677D01*
X035131Y007370D01*
X035285Y007447D02*
X035592Y007754D01*
X035592Y007447D01*
X035515Y007370D01*
X035361Y007370D01*
X035285Y007447D01*
X035285Y007754D01*
X035361Y007830D01*
X035515Y007830D01*
X035592Y007754D01*
X035131Y007600D02*
X034824Y007600D01*
X035361Y008370D02*
X035515Y008370D01*
X035592Y008447D01*
X035592Y008600D01*
X035438Y008600D01*
X035285Y008447D02*
X035361Y008370D01*
X035285Y008447D02*
X035285Y008754D01*
X035361Y008830D01*
X035515Y008830D01*
X035592Y008754D01*
X035438Y009370D02*
X035592Y009523D01*
X035592Y009830D01*
X035285Y009830D02*
X035285Y009523D01*
X035438Y009370D01*
X035131Y009523D02*
X035131Y009830D01*
X035131Y009523D02*
X034978Y009370D01*
X034824Y009523D01*
X034824Y009830D01*
X034901Y010370D02*
X034824Y010447D01*
X034901Y010370D02*
X035054Y010370D01*
X035131Y010447D01*
X035131Y010523D01*
X035054Y010600D01*
X034901Y010600D01*
X034824Y010677D01*
X034824Y010754D01*
X034901Y010830D01*
X035054Y010830D01*
X035131Y010754D01*
X035285Y010754D02*
X035361Y010830D01*
X035515Y010830D01*
X035592Y010754D01*
X035592Y010677D01*
X035515Y010600D01*
X035592Y010523D01*
X035592Y010447D01*
X035515Y010370D01*
X035361Y010370D01*
X035285Y010447D01*
X035438Y010600D02*
X035515Y010600D01*
X035592Y011370D02*
X035285Y011370D01*
X035592Y011677D01*
X035592Y011754D01*
X035515Y011830D01*
X035361Y011830D01*
X035285Y011754D01*
X035131Y011754D02*
X035054Y011830D01*
X034901Y011830D01*
X034824Y011754D01*
X034824Y011677D01*
X034901Y011600D01*
X035054Y011600D01*
X035131Y011523D01*
X035131Y011447D01*
X035054Y011370D01*
X034901Y011370D01*
X034824Y011447D01*
X034901Y012370D02*
X034824Y012447D01*
X034901Y012370D02*
X035054Y012370D01*
X035131Y012447D01*
X035131Y012523D01*
X035054Y012600D01*
X034901Y012600D01*
X034824Y012677D01*
X034824Y012754D01*
X034901Y012830D01*
X035054Y012830D01*
X035131Y012754D01*
X035285Y012677D02*
X035438Y012830D01*
X035438Y012370D01*
X035285Y012370D02*
X035592Y012370D01*
X035515Y013370D02*
X035361Y013370D01*
X035285Y013447D01*
X035285Y013754D01*
X035361Y013830D01*
X035515Y013830D01*
X035592Y013754D01*
X035592Y013447D02*
X035515Y013370D01*
X035131Y013447D02*
X035054Y013370D01*
X034901Y013370D01*
X034824Y013447D01*
X034901Y013600D02*
X035054Y013600D01*
X035131Y013523D01*
X035131Y013447D01*
X034901Y013600D02*
X034824Y013677D01*
X034824Y013754D01*
X034901Y013830D01*
X035054Y013830D01*
X035131Y013754D01*
X035054Y014370D02*
X034901Y014370D01*
X034824Y014447D01*
X034901Y014600D02*
X035054Y014600D01*
X035131Y014523D01*
X035131Y014447D01*
X035054Y014370D01*
X035285Y014447D02*
X035285Y014754D01*
X035361Y014830D01*
X035515Y014830D01*
X035592Y014754D01*
X035285Y014447D01*
X035361Y014370D01*
X035515Y014370D01*
X035592Y014447D01*
X035592Y014754D01*
X035131Y014754D02*
X035054Y014830D01*
X034901Y014830D01*
X034824Y014754D01*
X034824Y014677D01*
X034901Y014600D01*
X034901Y015370D02*
X034824Y015447D01*
X034901Y015370D02*
X035054Y015370D01*
X035131Y015447D01*
X035131Y015523D01*
X035054Y015600D01*
X034901Y015600D01*
X034824Y015677D01*
X034824Y015754D01*
X034901Y015830D01*
X035054Y015830D01*
X035131Y015754D01*
X035285Y015830D02*
X035285Y015370D01*
X035285Y015523D02*
X035592Y015830D01*
X035361Y015600D02*
X035592Y015370D01*
X035515Y016370D02*
X035361Y016370D01*
X035285Y016447D01*
X035285Y016754D01*
X035361Y016830D01*
X035515Y016830D01*
X035592Y016754D01*
X035592Y016600D02*
X035438Y016600D01*
X035592Y016600D02*
X035592Y016447D01*
X035515Y016370D01*
X035438Y017370D02*
X035592Y017523D01*
X035592Y017830D01*
X035285Y017830D02*
X035285Y017523D01*
X035438Y017370D01*
X035131Y017447D02*
X035054Y017370D01*
X034901Y017370D01*
X034824Y017447D01*
X034978Y017600D02*
X035054Y017600D01*
X035131Y017523D01*
X035131Y017447D01*
X035054Y017600D02*
X035131Y017677D01*
X035131Y017754D01*
X035054Y017830D01*
X034901Y017830D01*
X034824Y017754D01*
X034824Y018370D02*
X035131Y018370D01*
X035285Y018370D02*
X035285Y018830D01*
X035592Y018370D01*
X035592Y018830D01*
X035131Y018830D02*
X034824Y018830D01*
X034824Y018370D01*
X034824Y018600D02*
X034978Y018600D01*
X035054Y019370D02*
X034901Y019370D01*
X034824Y019447D01*
X034901Y019600D02*
X035054Y019600D01*
X035131Y019523D01*
X035131Y019447D01*
X035054Y019370D01*
X034901Y019600D02*
X034824Y019677D01*
X034824Y019754D01*
X034901Y019830D01*
X035054Y019830D01*
X035131Y019754D01*
X035285Y019830D02*
X035592Y019830D01*
X035438Y019830D02*
X035438Y019370D01*
X034671Y019370D02*
X034517Y019523D01*
X034594Y019523D02*
X034364Y019523D01*
X034364Y019370D02*
X034364Y019830D01*
X034594Y019830D01*
X034671Y019754D01*
X034671Y019600D01*
X034594Y019523D01*
X035361Y020370D02*
X035515Y020370D01*
X035592Y020447D01*
X035592Y020600D01*
X035438Y020600D01*
X035285Y020447D02*
X035361Y020370D01*
X035285Y020447D02*
X035285Y020754D01*
X035361Y020830D01*
X035515Y020830D01*
X035592Y020754D01*
X035592Y021370D02*
X035592Y021830D01*
X035285Y021830D02*
X035592Y021370D01*
X035285Y021370D02*
X035285Y021830D01*
X035131Y021830D02*
X034978Y021830D01*
X035054Y021830D02*
X035054Y021370D01*
X034978Y021370D02*
X035131Y021370D01*
X034824Y021523D02*
X034824Y021830D01*
X034824Y021523D02*
X034671Y021370D01*
X034517Y021523D01*
X034517Y021830D01*
X033580Y023995D02*
X033120Y023995D01*
X033120Y024225D01*
X033196Y024302D01*
X033350Y024302D01*
X033427Y024225D01*
X033427Y023995D01*
X033427Y024148D02*
X033580Y024302D01*
X033503Y024455D02*
X033580Y024532D01*
X033580Y024686D01*
X033503Y024762D01*
X033427Y024762D01*
X033350Y024686D01*
X033350Y024532D01*
X033273Y024455D01*
X033196Y024455D01*
X033120Y024532D01*
X033120Y024686D01*
X033196Y024762D01*
X033120Y024916D02*
X033120Y025223D01*
X033120Y025069D02*
X033580Y025069D01*
X033003Y029120D02*
X033080Y029197D01*
X033080Y029273D01*
X033003Y029350D01*
X032620Y029350D01*
X032620Y029273D02*
X032620Y029427D01*
X032773Y029580D02*
X032620Y029734D01*
X033080Y029734D01*
X033080Y029887D02*
X033080Y029580D01*
X029080Y025643D02*
X028620Y025643D01*
X028850Y025643D02*
X028850Y025337D01*
X028927Y025183D02*
X029003Y025183D01*
X029080Y025106D01*
X029080Y024953D01*
X029003Y024876D01*
X028850Y024953D02*
X028850Y025106D01*
X028927Y025183D01*
X029080Y025337D02*
X028620Y025337D01*
X028696Y025183D02*
X028620Y025106D01*
X028620Y024953D01*
X028696Y024876D01*
X028773Y024876D01*
X028850Y024953D01*
X028850Y024723D02*
X028850Y024416D01*
X028773Y024416D02*
X028620Y024569D01*
X028773Y024723D01*
X029080Y024723D01*
X029080Y024416D02*
X028773Y024416D01*
X029080Y024262D02*
X029080Y023955D01*
X028620Y023955D01*
X028620Y023802D02*
X028620Y023495D01*
X029080Y023495D01*
X028850Y023495D02*
X028850Y023648D01*
D15*
X030950Y027650D02*
X031100Y027650D01*
X031150Y027700D01*
X033050Y027700D01*
X033100Y027650D01*
X033250Y027650D01*
X033267Y027652D01*
X033284Y027656D01*
X033300Y027663D01*
X033314Y027673D01*
X033327Y027686D01*
X033337Y027700D01*
X033344Y027716D01*
X033348Y027733D01*
X033350Y027750D01*
X033350Y028450D01*
X033348Y028467D01*
X033344Y028484D01*
X033337Y028500D01*
X033327Y028514D01*
X033314Y028527D01*
X033300Y028537D01*
X033284Y028544D01*
X033267Y028548D01*
X033250Y028550D01*
X033100Y028550D01*
X033050Y028500D01*
X031150Y028500D01*
X031100Y028550D01*
X030950Y028550D01*
X030933Y028548D01*
X030916Y028544D01*
X030900Y028537D01*
X030886Y028527D01*
X030873Y028514D01*
X030863Y028500D01*
X030856Y028484D01*
X030852Y028467D01*
X030850Y028450D01*
X030850Y027750D01*
X030852Y027733D01*
X030856Y027716D01*
X030863Y027700D01*
X030873Y027686D01*
X030886Y027673D01*
X030900Y027663D01*
X030916Y027656D01*
X030933Y027652D01*
X030950Y027650D01*
X020050Y027950D02*
X020050Y028100D01*
X020000Y028150D01*
X020000Y030050D01*
X020050Y030100D01*
X020050Y030250D01*
X020048Y030267D01*
X020044Y030284D01*
X020037Y030300D01*
X020027Y030314D01*
X020014Y030327D01*
X020000Y030337D01*
X019984Y030344D01*
X019967Y030348D01*
X019950Y030350D01*
X019250Y030350D01*
X019233Y030348D01*
X019216Y030344D01*
X019200Y030337D01*
X019186Y030327D01*
X019173Y030314D01*
X019163Y030300D01*
X019156Y030284D01*
X019152Y030267D01*
X019150Y030250D01*
X019150Y030100D01*
X019200Y030050D01*
X019200Y028150D01*
X019150Y028100D01*
X019150Y027950D01*
X019152Y027933D01*
X019156Y027916D01*
X019163Y027900D01*
X019173Y027886D01*
X019186Y027873D01*
X019200Y027863D01*
X019216Y027856D01*
X019233Y027852D01*
X019250Y027850D01*
X019950Y027850D01*
X019967Y027852D01*
X019984Y027856D01*
X020000Y027863D01*
X020014Y027873D01*
X020027Y027886D01*
X020037Y027900D01*
X020044Y027916D01*
X020048Y027933D01*
X020050Y027950D01*
X017650Y025850D02*
X017650Y032350D01*
X009550Y032350D01*
X009550Y025850D01*
X017650Y025850D01*
X017650Y024850D02*
X017650Y018350D01*
X009550Y018350D01*
X009550Y024850D01*
X017650Y024850D01*
X016100Y023350D02*
X016100Y022350D01*
X016350Y022600D02*
X015350Y021600D01*
X014350Y021600D01*
X012850Y022100D02*
X012350Y021100D01*
X012600Y021100D02*
X012600Y019350D01*
X011850Y019350D01*
X009550Y017350D02*
X009550Y010850D01*
X017650Y010850D01*
X017650Y017350D01*
X009550Y017350D01*
X011850Y016350D02*
X012600Y016350D01*
X012600Y014600D01*
X012850Y014600D02*
X012350Y013600D01*
X012600Y013600D02*
X012600Y011850D01*
X011850Y011850D01*
X009550Y009850D02*
X009550Y003350D01*
X017650Y003350D01*
X017650Y009850D01*
X009550Y009850D01*
X011850Y008850D02*
X012600Y008850D01*
X012600Y007100D01*
X012850Y007100D02*
X012350Y006100D01*
X012600Y006100D02*
X012600Y004350D01*
X011850Y004350D01*
X014350Y006600D02*
X015350Y006600D01*
X016350Y007600D01*
X016100Y007350D02*
X016100Y008350D01*
X016100Y005850D02*
X016100Y004850D01*
X019150Y005450D02*
X019150Y005600D01*
X019200Y005650D01*
X019200Y007550D01*
X019150Y007600D01*
X019150Y007750D01*
X019152Y007767D01*
X019156Y007784D01*
X019163Y007800D01*
X019173Y007814D01*
X019186Y007827D01*
X019200Y007837D01*
X019216Y007844D01*
X019233Y007848D01*
X019250Y007850D01*
X019950Y007850D01*
X019967Y007848D01*
X019984Y007844D01*
X020000Y007837D01*
X020014Y007827D01*
X020027Y007814D01*
X020037Y007800D01*
X020044Y007784D01*
X020048Y007767D01*
X020050Y007750D01*
X020050Y007600D01*
X020000Y007550D01*
X020000Y005650D01*
X020050Y005600D01*
X020050Y005450D01*
X020048Y005433D01*
X020044Y005416D01*
X020037Y005400D01*
X020027Y005386D01*
X020014Y005373D01*
X020000Y005363D01*
X019984Y005356D01*
X019967Y005352D01*
X019950Y005350D01*
X019250Y005350D01*
X019233Y005352D01*
X019216Y005356D01*
X019200Y005363D01*
X019186Y005373D01*
X019173Y005386D01*
X019163Y005400D01*
X019156Y005416D01*
X019152Y005433D01*
X019150Y005450D01*
X016100Y012350D02*
X016100Y013350D01*
X015350Y014100D02*
X016350Y015100D01*
X016100Y014850D02*
X016100Y015850D01*
X015350Y014100D02*
X014350Y014100D01*
X019150Y013100D02*
X019200Y013150D01*
X019200Y015050D01*
X019150Y015100D01*
X019150Y015250D01*
X019152Y015267D01*
X019156Y015284D01*
X019163Y015300D01*
X019173Y015314D01*
X019186Y015327D01*
X019200Y015337D01*
X019216Y015344D01*
X019233Y015348D01*
X019250Y015350D01*
X019950Y015350D01*
X019967Y015348D01*
X019984Y015344D01*
X020000Y015337D01*
X020014Y015327D01*
X020027Y015314D01*
X020037Y015300D01*
X020044Y015284D01*
X020048Y015267D01*
X020050Y015250D01*
X020050Y015100D01*
X020000Y015050D01*
X020000Y013150D01*
X020050Y013100D01*
X020050Y012950D01*
X020048Y012933D01*
X020044Y012916D01*
X020037Y012900D01*
X020027Y012886D01*
X020014Y012873D01*
X020000Y012863D01*
X019984Y012856D01*
X019967Y012852D01*
X019950Y012850D01*
X019250Y012850D01*
X019233Y012852D01*
X019216Y012856D01*
X019200Y012863D01*
X019186Y012873D01*
X019173Y012886D01*
X019163Y012900D01*
X019156Y012916D01*
X019152Y012933D01*
X019150Y012950D01*
X019150Y013100D01*
X016100Y019850D02*
X016100Y020850D01*
X019150Y020600D02*
X019200Y020650D01*
X019200Y022550D01*
X019150Y022600D01*
X019150Y022750D01*
X019152Y022767D01*
X019156Y022784D01*
X019163Y022800D01*
X019173Y022814D01*
X019186Y022827D01*
X019200Y022837D01*
X019216Y022844D01*
X019233Y022848D01*
X019250Y022850D01*
X019950Y022850D01*
X019967Y022848D01*
X019984Y022844D01*
X020000Y022837D01*
X020014Y022827D01*
X020027Y022814D01*
X020037Y022800D01*
X020044Y022784D01*
X020048Y022767D01*
X020050Y022750D01*
X020050Y022600D01*
X020000Y022550D01*
X020000Y020650D01*
X020050Y020600D01*
X020050Y020450D01*
X020048Y020433D01*
X020044Y020416D01*
X020037Y020400D01*
X020027Y020386D01*
X020014Y020373D01*
X020000Y020363D01*
X019984Y020356D01*
X019967Y020352D01*
X019950Y020350D01*
X019250Y020350D01*
X019233Y020352D01*
X019216Y020356D01*
X019200Y020363D01*
X019186Y020373D01*
X019173Y020386D01*
X019163Y020400D01*
X019156Y020416D01*
X019152Y020433D01*
X019150Y020450D01*
X019150Y020600D01*
X012600Y022100D02*
X012600Y023850D01*
X011850Y023850D01*
X011850Y026850D02*
X012600Y026850D01*
X012600Y028600D01*
X012350Y028600D02*
X012850Y029600D01*
X012600Y029600D02*
X012600Y031350D01*
X011850Y031350D01*
X014350Y029100D02*
X015350Y029100D01*
X016350Y030100D01*
X016100Y029850D02*
X016100Y030850D01*
X016100Y028350D02*
X016100Y027350D01*
X008100Y028300D02*
X007100Y028300D01*
X007100Y029900D01*
X008100Y029900D01*
X008100Y028300D01*
X007600Y028850D02*
X007600Y029100D01*
X007850Y029100D01*
X007600Y029100D02*
X007350Y029100D01*
X007600Y029100D02*
X007350Y029500D01*
X007850Y029500D01*
X007600Y029100D01*
X007600Y029700D01*
X007100Y022400D02*
X007100Y020800D01*
X008100Y020800D01*
X008100Y022400D01*
X007100Y022400D01*
X007350Y022000D02*
X007600Y021600D01*
X007850Y021600D01*
X007600Y021600D02*
X007350Y021600D01*
X007600Y021600D02*
X007600Y021350D01*
X007600Y021600D02*
X007600Y022200D01*
X007350Y022000D02*
X007850Y022000D01*
X007600Y021600D01*
X007100Y014900D02*
X007100Y013300D01*
X008100Y013300D01*
X008100Y014900D01*
X007100Y014900D01*
X007350Y014500D02*
X007600Y014100D01*
X007850Y014100D01*
X007600Y014100D02*
X007350Y014100D01*
X007600Y014100D02*
X007600Y013850D01*
X007600Y014100D02*
X007600Y014700D01*
X007350Y014500D02*
X007850Y014500D01*
X007600Y014100D01*
X007100Y007400D02*
X007100Y005800D01*
X008100Y005800D01*
X008100Y007400D01*
X007100Y007400D01*
X007350Y007000D02*
X007600Y006600D01*
X007850Y006600D01*
X007600Y006600D02*
X007350Y006600D01*
X007600Y006600D02*
X007600Y006350D01*
X007600Y006600D02*
X007600Y007200D01*
X007350Y007000D02*
X007850Y007000D01*
X007600Y006600D01*
D16*
X019600Y005180D03*
X019600Y008020D03*
X019600Y012680D03*
X019600Y015520D03*
X019600Y020180D03*
X019600Y023020D03*
X019600Y027680D03*
X019600Y030520D03*
D17*
X007600Y028550D03*
X007600Y021050D03*
X007600Y013550D03*
X007600Y006050D03*
D18*
X007600Y005425D03*
X007600Y007775D03*
X007600Y012925D03*
X007600Y015275D03*
X007600Y020425D03*
X007600Y022775D03*
X007600Y027925D03*
X007600Y030275D03*
D19*
X017934Y026990D02*
X018565Y026990D01*
X018565Y026780D02*
X018565Y027200D01*
X018145Y026780D02*
X017934Y026990D01*
X017934Y026555D02*
X018355Y026135D01*
X018250Y026240D02*
X018565Y026555D01*
X018565Y026135D02*
X017934Y026135D01*
X018040Y019700D02*
X017934Y019595D01*
X017934Y019385D01*
X018040Y019280D01*
X017934Y019055D02*
X018355Y018635D01*
X018250Y018740D02*
X018565Y019055D01*
X018565Y019280D02*
X018145Y019700D01*
X018040Y019700D01*
X018565Y019700D02*
X018565Y019280D01*
X018565Y018635D02*
X017934Y018635D01*
X018040Y012200D02*
X018145Y012200D01*
X018250Y012095D01*
X018355Y012200D01*
X018460Y012200D01*
X018565Y012095D01*
X018565Y011885D01*
X018460Y011780D01*
X018565Y011555D02*
X018250Y011240D01*
X018355Y011135D02*
X017934Y011555D01*
X018040Y011780D02*
X017934Y011885D01*
X017934Y012095D01*
X018040Y012200D01*
X018250Y012095D02*
X018250Y011990D01*
X017934Y011135D02*
X018565Y011135D01*
X018250Y004700D02*
X018250Y004280D01*
X017934Y004595D01*
X018565Y004595D01*
X018565Y004055D02*
X018250Y003740D01*
X018355Y003635D02*
X017934Y004055D01*
X017934Y003635D02*
X018565Y003635D01*
D20*
X026100Y031950D03*
D21*
X027825Y031700D03*
X024375Y031700D03*
D22*
X025600Y031700D03*
X026600Y031700D03*
D23*
X033565Y031663D02*
X033565Y032293D01*
X034194Y032293D01*
X036065Y032293D02*
X039194Y032293D01*
X039194Y028907D01*
X033565Y028907D01*
X033565Y029537D01*
D24*
X030107Y030713D02*
X030150Y030746D01*
X030180Y030710D01*
X030213Y030677D01*
X030249Y030647D01*
X030287Y030620D01*
X030327Y030596D01*
X030369Y030575D01*
X030413Y030558D01*
X030458Y030545D01*
X030504Y030535D01*
X030550Y030529D01*
X030597Y030527D01*
X030597Y030474D01*
X030597Y030473D01*
X030550Y030475D01*
X030503Y030480D01*
X030457Y030489D01*
X030412Y030502D01*
X030368Y030518D01*
X030325Y030537D01*
X030283Y030559D01*
X030243Y030584D01*
X030206Y030612D01*
X030170Y030643D01*
X030137Y030677D01*
X030107Y030713D01*
X030111Y030716D01*
X030141Y030680D01*
X030174Y030647D01*
X030209Y030616D01*
X030246Y030588D01*
X030286Y030563D01*
X030327Y030541D01*
X030369Y030522D01*
X030413Y030507D01*
X030458Y030494D01*
X030504Y030485D01*
X030550Y030480D01*
X030597Y030478D01*
X030597Y030483D01*
X030551Y030485D01*
X030505Y030490D01*
X030459Y030499D01*
X030415Y030511D01*
X030371Y030527D01*
X030329Y030546D01*
X030288Y030568D01*
X030249Y030592D01*
X030212Y030620D01*
X030177Y030651D01*
X030145Y030684D01*
X030115Y030719D01*
X030119Y030722D01*
X030148Y030687D01*
X030181Y030654D01*
X030215Y030624D01*
X030252Y030597D01*
X030291Y030572D01*
X030331Y030550D01*
X030373Y030532D01*
X030416Y030516D01*
X030461Y030504D01*
X030506Y030495D01*
X030551Y030490D01*
X030597Y030488D01*
X030597Y030493D01*
X030552Y030495D01*
X030506Y030500D01*
X030462Y030509D01*
X030418Y030521D01*
X030375Y030536D01*
X030333Y030555D01*
X030293Y030576D01*
X030255Y030601D01*
X030218Y030628D01*
X030184Y030658D01*
X030152Y030690D01*
X030123Y030725D01*
X030127Y030728D01*
X030156Y030694D01*
X030188Y030662D01*
X030222Y030632D01*
X030258Y030605D01*
X030296Y030581D01*
X030335Y030559D01*
X030377Y030541D01*
X030419Y030526D01*
X030463Y030514D01*
X030507Y030505D01*
X030552Y030500D01*
X030597Y030498D01*
X030597Y030503D01*
X030552Y030505D01*
X030508Y030510D01*
X030464Y030519D01*
X030421Y030531D01*
X030379Y030546D01*
X030338Y030564D01*
X030298Y030585D01*
X030261Y030609D01*
X030225Y030636D01*
X030191Y030665D01*
X030160Y030697D01*
X030131Y030731D01*
X030135Y030734D01*
X030163Y030700D01*
X030194Y030669D01*
X030228Y030640D01*
X030263Y030613D01*
X030301Y030589D01*
X030340Y030568D01*
X030380Y030550D01*
X030422Y030535D01*
X030465Y030524D01*
X030509Y030515D01*
X030553Y030510D01*
X030597Y030508D01*
X030597Y030513D01*
X030553Y030515D01*
X030509Y030520D01*
X030466Y030528D01*
X030424Y030540D01*
X030382Y030555D01*
X030342Y030573D01*
X030303Y030593D01*
X030266Y030617D01*
X030231Y030643D01*
X030198Y030672D01*
X030167Y030704D01*
X030138Y030737D01*
X030142Y030740D01*
X030173Y030704D01*
X030207Y030671D01*
X030243Y030640D01*
X030282Y030612D01*
X030323Y030588D01*
X030366Y030567D01*
X030410Y030550D01*
X030456Y030536D01*
X030502Y030526D01*
X030549Y030520D01*
X030597Y030518D01*
X030597Y030523D01*
X030550Y030525D01*
X030503Y030531D01*
X030457Y030541D01*
X030412Y030555D01*
X030368Y030572D01*
X030326Y030592D01*
X030285Y030617D01*
X030247Y030644D01*
X030210Y030674D01*
X030177Y030708D01*
X030146Y030743D01*
X031108Y031466D02*
X031064Y031435D01*
X031065Y031435D02*
X031037Y031471D01*
X031006Y031504D01*
X030974Y031534D01*
X030938Y031562D01*
X030901Y031587D01*
X030862Y031609D01*
X030822Y031628D01*
X030779Y031644D01*
X030736Y031657D01*
X030692Y031666D01*
X030648Y031671D01*
X030603Y031673D01*
X030603Y031726D01*
X030603Y031727D01*
X030652Y031725D01*
X030701Y031719D01*
X030749Y031709D01*
X030796Y031695D01*
X030842Y031678D01*
X030887Y031658D01*
X030930Y031633D01*
X030970Y031606D01*
X031009Y031575D01*
X031045Y031542D01*
X031078Y031506D01*
X031108Y031467D01*
X031104Y031464D01*
X031074Y031502D01*
X031041Y031538D01*
X031006Y031571D01*
X030968Y031602D01*
X030927Y031629D01*
X030885Y031653D01*
X030840Y031674D01*
X030795Y031691D01*
X030748Y031704D01*
X030700Y031714D01*
X030652Y031720D01*
X030603Y031722D01*
X030603Y031717D01*
X030651Y031715D01*
X030699Y031709D01*
X030747Y031699D01*
X030793Y031686D01*
X030839Y031669D01*
X030882Y031649D01*
X030924Y031625D01*
X030965Y031598D01*
X031002Y031568D01*
X031038Y031535D01*
X031071Y031499D01*
X031100Y031461D01*
X031096Y031458D01*
X031067Y031496D01*
X031034Y031531D01*
X030999Y031564D01*
X030962Y031594D01*
X030922Y031621D01*
X030880Y031644D01*
X030837Y031664D01*
X030792Y031681D01*
X030746Y031694D01*
X030699Y031704D01*
X030651Y031710D01*
X030603Y031712D01*
X030603Y031707D01*
X030651Y031705D01*
X030698Y031699D01*
X030744Y031690D01*
X030790Y031676D01*
X030835Y031660D01*
X030878Y031640D01*
X030919Y031616D01*
X030959Y031590D01*
X030996Y031560D01*
X031031Y031528D01*
X031063Y031493D01*
X031092Y031455D01*
X031088Y031452D01*
X031059Y031489D01*
X031027Y031524D01*
X030993Y031556D01*
X030956Y031586D01*
X030917Y031612D01*
X030875Y031635D01*
X030833Y031655D01*
X030789Y031672D01*
X030743Y031685D01*
X030697Y031694D01*
X030650Y031700D01*
X030603Y031702D01*
X030603Y031697D01*
X030650Y031695D01*
X030696Y031689D01*
X030742Y031680D01*
X030787Y031667D01*
X030831Y031651D01*
X030873Y031631D01*
X030914Y031608D01*
X030953Y031582D01*
X030989Y031553D01*
X031024Y031521D01*
X031055Y031486D01*
X031084Y031449D01*
X031080Y031447D01*
X031051Y031483D01*
X031020Y031517D01*
X030986Y031549D01*
X030950Y031578D01*
X030911Y031604D01*
X030871Y031626D01*
X030829Y031646D01*
X030785Y031662D01*
X030741Y031675D01*
X030695Y031684D01*
X030649Y031690D01*
X030603Y031692D01*
X030603Y031687D01*
X030649Y031685D01*
X030695Y031679D01*
X030740Y031670D01*
X030784Y031657D01*
X030827Y031641D01*
X030869Y031622D01*
X030909Y031599D01*
X030947Y031574D01*
X030983Y031545D01*
X031016Y031514D01*
X031048Y031480D01*
X031076Y031444D01*
X031072Y031441D01*
X031044Y031477D01*
X031013Y031510D01*
X030980Y031541D01*
X030944Y031570D01*
X030906Y031595D01*
X030866Y031617D01*
X030825Y031637D01*
X030782Y031653D01*
X030738Y031665D01*
X030694Y031674D01*
X030649Y031680D01*
X030603Y031682D01*
X030603Y031677D01*
X030648Y031675D01*
X030693Y031669D01*
X030737Y031660D01*
X030781Y031648D01*
X030823Y031632D01*
X030864Y031613D01*
X030903Y031591D01*
X030941Y031566D01*
X030976Y031537D01*
X031009Y031507D01*
X031040Y031473D01*
X031068Y031438D01*
X030598Y031726D02*
X030598Y031672D01*
X030597Y031673D02*
X030553Y031671D01*
X030510Y031666D01*
X030467Y031657D01*
X030425Y031646D01*
X030384Y031631D01*
X030344Y031613D01*
X030305Y031591D01*
X030269Y031568D01*
X030234Y031541D01*
X030201Y031512D01*
X030171Y031480D01*
X030143Y031446D01*
X030101Y031478D01*
X030100Y031479D01*
X030131Y031516D01*
X030164Y031550D01*
X030199Y031582D01*
X030237Y031612D01*
X030278Y031638D01*
X030320Y031661D01*
X030363Y031681D01*
X030408Y031697D01*
X030454Y031710D01*
X030502Y031719D01*
X030549Y031725D01*
X030597Y031727D01*
X030597Y031722D01*
X030549Y031720D01*
X030502Y031714D01*
X030456Y031705D01*
X030410Y031692D01*
X030365Y031676D01*
X030322Y031656D01*
X030280Y031633D01*
X030240Y031607D01*
X030203Y031579D01*
X030167Y031547D01*
X030134Y031512D01*
X030104Y031476D01*
X030108Y031473D01*
X030138Y031509D01*
X030171Y031543D01*
X030206Y031575D01*
X030243Y031603D01*
X030283Y031629D01*
X030324Y031652D01*
X030367Y031671D01*
X030411Y031687D01*
X030457Y031700D01*
X030503Y031709D01*
X030550Y031715D01*
X030597Y031717D01*
X030597Y031712D01*
X030550Y031710D01*
X030504Y031704D01*
X030458Y031695D01*
X030413Y031683D01*
X030369Y031667D01*
X030326Y031647D01*
X030285Y031625D01*
X030246Y031599D01*
X030209Y031571D01*
X030174Y031540D01*
X030142Y031506D01*
X030112Y031470D01*
X030116Y031467D01*
X030146Y031502D01*
X030178Y031536D01*
X030212Y031567D01*
X030249Y031595D01*
X030288Y031621D01*
X030329Y031643D01*
X030371Y031662D01*
X030414Y031678D01*
X030459Y031690D01*
X030505Y031699D01*
X030551Y031705D01*
X030597Y031707D01*
X030597Y031702D01*
X030551Y031700D01*
X030505Y031695D01*
X030460Y031686D01*
X030416Y031673D01*
X030373Y031657D01*
X030331Y031638D01*
X030290Y031616D01*
X030252Y031591D01*
X030215Y031563D01*
X030181Y031532D01*
X030149Y031499D01*
X030120Y031464D01*
X030124Y031461D01*
X030153Y031496D01*
X030185Y031529D01*
X030219Y031559D01*
X030255Y031587D01*
X030293Y031612D01*
X030333Y031634D01*
X030375Y031653D01*
X030417Y031668D01*
X030461Y031681D01*
X030506Y031690D01*
X030551Y031695D01*
X030597Y031697D01*
X030597Y031692D01*
X030552Y031690D01*
X030507Y031685D01*
X030463Y031676D01*
X030419Y031664D01*
X030376Y031648D01*
X030335Y031630D01*
X030296Y031608D01*
X030258Y031583D01*
X030222Y031555D01*
X030188Y031525D01*
X030157Y031493D01*
X030128Y031458D01*
X030132Y031455D01*
X030161Y031489D01*
X030192Y031522D01*
X030225Y031552D01*
X030261Y031579D01*
X030298Y031603D01*
X030337Y031625D01*
X030378Y031644D01*
X030420Y031659D01*
X030464Y031671D01*
X030508Y031680D01*
X030552Y031685D01*
X030597Y031687D01*
X030597Y031682D01*
X030553Y031680D01*
X030508Y031675D01*
X030465Y031666D01*
X030422Y031654D01*
X030380Y031639D01*
X030340Y031621D01*
X030301Y031599D01*
X030264Y031575D01*
X030228Y031548D01*
X030195Y031518D01*
X030164Y031486D01*
X030136Y031452D01*
X030140Y031449D01*
X030168Y031483D01*
X030199Y031515D01*
X030231Y031544D01*
X030266Y031571D01*
X030303Y031595D01*
X030342Y031616D01*
X030382Y031634D01*
X030424Y031649D01*
X030466Y031661D01*
X030509Y031670D01*
X030553Y031675D01*
X030597Y031677D01*
X030603Y030474D02*
X030603Y030528D01*
X030603Y030527D02*
X030650Y030529D01*
X030696Y030535D01*
X030742Y030545D01*
X030787Y030558D01*
X030831Y030575D01*
X030873Y030596D01*
X030913Y030620D01*
X030951Y030647D01*
X030987Y030677D01*
X031020Y030710D01*
X031050Y030746D01*
X031093Y030713D01*
X031063Y030677D01*
X031030Y030643D01*
X030994Y030612D01*
X030957Y030584D01*
X030917Y030559D01*
X030875Y030537D01*
X030832Y030518D01*
X030788Y030502D01*
X030743Y030489D01*
X030697Y030480D01*
X030650Y030475D01*
X030603Y030473D01*
X030603Y030478D01*
X030650Y030480D01*
X030696Y030485D01*
X030742Y030494D01*
X030787Y030507D01*
X030831Y030522D01*
X030873Y030541D01*
X030914Y030563D01*
X030954Y030588D01*
X030991Y030616D01*
X031026Y030647D01*
X031059Y030680D01*
X031089Y030716D01*
X031085Y030719D01*
X031055Y030684D01*
X031023Y030651D01*
X030988Y030620D01*
X030951Y030592D01*
X030912Y030568D01*
X030871Y030546D01*
X030829Y030527D01*
X030785Y030511D01*
X030741Y030499D01*
X030695Y030490D01*
X030649Y030485D01*
X030603Y030483D01*
X030603Y030488D01*
X030649Y030490D01*
X030694Y030495D01*
X030739Y030504D01*
X030784Y030516D01*
X030827Y030532D01*
X030869Y030550D01*
X030909Y030572D01*
X030948Y030597D01*
X030985Y030624D01*
X031019Y030654D01*
X031052Y030687D01*
X031081Y030722D01*
X031077Y030725D01*
X031048Y030690D01*
X031016Y030658D01*
X030982Y030628D01*
X030945Y030601D01*
X030907Y030576D01*
X030867Y030555D01*
X030825Y030536D01*
X030782Y030521D01*
X030738Y030509D01*
X030694Y030500D01*
X030648Y030495D01*
X030603Y030493D01*
X030603Y030498D01*
X030648Y030500D01*
X030693Y030505D01*
X030737Y030514D01*
X030781Y030526D01*
X030823Y030541D01*
X030865Y030559D01*
X030904Y030581D01*
X030942Y030605D01*
X030978Y030632D01*
X031012Y030662D01*
X031044Y030694D01*
X031073Y030728D01*
X031069Y030731D01*
X031040Y030697D01*
X031009Y030665D01*
X030975Y030636D01*
X030939Y030609D01*
X030902Y030585D01*
X030862Y030564D01*
X030821Y030546D01*
X030779Y030531D01*
X030736Y030519D01*
X030692Y030510D01*
X030648Y030505D01*
X030603Y030503D01*
X030603Y030508D01*
X030647Y030510D01*
X030691Y030515D01*
X030735Y030524D01*
X030778Y030535D01*
X030820Y030550D01*
X030860Y030568D01*
X030899Y030589D01*
X030937Y030613D01*
X030972Y030640D01*
X031006Y030669D01*
X031037Y030700D01*
X031065Y030734D01*
X031062Y030737D01*
X031033Y030704D01*
X031002Y030672D01*
X030969Y030643D01*
X030934Y030617D01*
X030897Y030593D01*
X030858Y030573D01*
X030818Y030555D01*
X030776Y030540D01*
X030734Y030528D01*
X030691Y030520D01*
X030647Y030515D01*
X030603Y030513D01*
X030603Y030518D01*
X030651Y030520D01*
X030698Y030526D01*
X030744Y030536D01*
X030790Y030550D01*
X030834Y030567D01*
X030877Y030588D01*
X030918Y030612D01*
X030957Y030640D01*
X030993Y030671D01*
X031027Y030704D01*
X031058Y030740D01*
X031054Y030743D01*
X031023Y030708D01*
X030990Y030674D01*
X030953Y030644D01*
X030915Y030617D01*
X030874Y030592D01*
X030832Y030572D01*
X030788Y030555D01*
X030743Y030541D01*
X030697Y030531D01*
X030650Y030525D01*
X030603Y030523D01*
D25*
X030595Y031944D02*
X030595Y031854D01*
X030595Y031855D02*
X030541Y031853D01*
X030488Y031847D01*
X030435Y031837D01*
X030383Y031823D01*
X030332Y031806D01*
X030283Y031785D01*
X030235Y031761D01*
X030189Y031733D01*
X030145Y031702D01*
X030103Y031668D01*
X030064Y031632D01*
X030027Y031592D01*
X029994Y031550D01*
X029963Y031506D01*
X029936Y031460D01*
X029857Y031502D01*
X029885Y031551D01*
X029917Y031597D01*
X029952Y031642D01*
X029989Y031684D01*
X030030Y031724D01*
X030073Y031760D01*
X030118Y031794D01*
X030165Y031825D01*
X030215Y031852D01*
X030266Y031876D01*
X030318Y031897D01*
X030372Y031914D01*
X030427Y031927D01*
X030482Y031937D01*
X030539Y031943D01*
X030595Y031945D01*
X030595Y031936D01*
X030539Y031934D01*
X030484Y031928D01*
X030429Y031918D01*
X030374Y031905D01*
X030321Y031888D01*
X030269Y031868D01*
X030219Y031844D01*
X030170Y031817D01*
X030123Y031787D01*
X030078Y031753D01*
X030036Y031717D01*
X029996Y031678D01*
X029959Y031636D01*
X029924Y031592D01*
X029893Y031546D01*
X029865Y031498D01*
X029873Y031494D01*
X029901Y031541D01*
X029932Y031587D01*
X029966Y031630D01*
X030002Y031672D01*
X030042Y031710D01*
X030084Y031746D01*
X030128Y031779D01*
X030174Y031809D01*
X030223Y031836D01*
X030273Y031859D01*
X030324Y031880D01*
X030377Y031896D01*
X030430Y031909D01*
X030485Y031919D01*
X030540Y031925D01*
X030595Y031927D01*
X030595Y031918D01*
X030540Y031916D01*
X030486Y031910D01*
X030432Y031901D01*
X030379Y031888D01*
X030327Y031871D01*
X030276Y031851D01*
X030227Y031828D01*
X030179Y031801D01*
X030133Y031772D01*
X030089Y031739D01*
X030048Y031704D01*
X030009Y031665D01*
X029972Y031625D01*
X029939Y031582D01*
X029908Y031536D01*
X029881Y031489D01*
X029889Y031485D01*
X029916Y031532D01*
X029946Y031576D01*
X029979Y031619D01*
X030015Y031659D01*
X030054Y031697D01*
X030095Y031732D01*
X030138Y031764D01*
X030184Y031794D01*
X030231Y031820D01*
X030280Y031843D01*
X030330Y031863D01*
X030382Y031879D01*
X030434Y031892D01*
X030487Y031901D01*
X030541Y031907D01*
X030595Y031909D01*
X030595Y031900D01*
X030542Y031898D01*
X030489Y031892D01*
X030436Y031883D01*
X030384Y031870D01*
X030333Y031854D01*
X030283Y031835D01*
X030235Y031812D01*
X030188Y031786D01*
X030144Y031757D01*
X030101Y031725D01*
X030060Y031690D01*
X030022Y031653D01*
X029986Y031613D01*
X029953Y031571D01*
X029923Y031527D01*
X029896Y031481D01*
X029904Y031477D01*
X029931Y031522D01*
X029961Y031566D01*
X029993Y031607D01*
X030028Y031647D01*
X030066Y031684D01*
X030106Y031718D01*
X030149Y031750D01*
X030193Y031778D01*
X030239Y031804D01*
X030287Y031826D01*
X030336Y031846D01*
X030386Y031862D01*
X030438Y031874D01*
X030490Y031883D01*
X030542Y031889D01*
X030595Y031891D01*
X030595Y031882D01*
X030539Y031880D01*
X030484Y031873D01*
X030429Y031863D01*
X030375Y031849D01*
X030323Y031831D01*
X030271Y031810D01*
X030222Y031784D01*
X030174Y031756D01*
X030128Y031724D01*
X030085Y031689D01*
X030045Y031651D01*
X030007Y031610D01*
X029972Y031566D01*
X029941Y031520D01*
X029912Y031472D01*
X029920Y031468D01*
X029948Y031516D01*
X029979Y031561D01*
X030014Y031604D01*
X030051Y031644D01*
X030091Y031682D01*
X030134Y031717D01*
X030179Y031748D01*
X030226Y031777D01*
X030275Y031801D01*
X030326Y031823D01*
X030378Y031840D01*
X030431Y031854D01*
X030485Y031864D01*
X030540Y031871D01*
X030595Y031873D01*
X030595Y031864D01*
X030541Y031862D01*
X030487Y031856D01*
X030433Y031846D01*
X030381Y031832D01*
X030329Y031814D01*
X030279Y031793D01*
X030230Y031769D01*
X030184Y031741D01*
X030139Y031709D01*
X030097Y031675D01*
X030058Y031638D01*
X030021Y031598D01*
X029987Y031556D01*
X029956Y031511D01*
X029928Y031464D01*
X029869Y030677D02*
X029947Y030722D01*
X029947Y030721D02*
X029975Y030677D01*
X030006Y030635D01*
X030039Y030595D01*
X030075Y030557D01*
X030114Y030522D01*
X030155Y030490D01*
X030199Y030460D01*
X030244Y030434D01*
X030291Y030411D01*
X030339Y030391D01*
X030389Y030375D01*
X030439Y030362D01*
X030491Y030353D01*
X030543Y030347D01*
X030595Y030345D01*
X030596Y030256D01*
X030595Y030255D01*
X030540Y030257D01*
X030486Y030263D01*
X030431Y030272D01*
X030378Y030285D01*
X030326Y030301D01*
X030274Y030320D01*
X030224Y030343D01*
X030176Y030369D01*
X030129Y030398D01*
X030085Y030430D01*
X030042Y030465D01*
X030002Y030503D01*
X029965Y030543D01*
X029930Y030585D01*
X029898Y030630D01*
X029869Y030676D01*
X029877Y030681D01*
X029905Y030635D01*
X029937Y030591D01*
X029972Y030549D01*
X030009Y030509D01*
X030048Y030472D01*
X030090Y030437D01*
X030134Y030406D01*
X030180Y030377D01*
X030228Y030351D01*
X030278Y030329D01*
X030328Y030309D01*
X030380Y030293D01*
X030433Y030281D01*
X030487Y030272D01*
X030541Y030266D01*
X030595Y030264D01*
X030595Y030273D01*
X030541Y030275D01*
X030488Y030281D01*
X030435Y030290D01*
X030383Y030302D01*
X030331Y030318D01*
X030281Y030337D01*
X030232Y030359D01*
X030185Y030385D01*
X030139Y030413D01*
X030096Y030445D01*
X030054Y030479D01*
X030015Y030515D01*
X029978Y030555D01*
X029944Y030596D01*
X029913Y030640D01*
X029884Y030685D01*
X029892Y030690D01*
X029922Y030642D01*
X029956Y030596D01*
X029992Y030553D01*
X030032Y030512D01*
X030074Y030474D01*
X030118Y030439D01*
X030165Y030407D01*
X030214Y030379D01*
X030265Y030354D01*
X030318Y030332D01*
X030371Y030315D01*
X030426Y030301D01*
X030482Y030291D01*
X030538Y030284D01*
X030595Y030282D01*
X030595Y030291D01*
X030539Y030293D01*
X030483Y030299D01*
X030428Y030309D01*
X030374Y030323D01*
X030321Y030341D01*
X030269Y030362D01*
X030218Y030387D01*
X030170Y030415D01*
X030124Y030446D01*
X030079Y030481D01*
X030038Y030518D01*
X029999Y030559D01*
X029963Y030601D01*
X029930Y030647D01*
X029900Y030694D01*
X029908Y030699D01*
X029937Y030652D01*
X029970Y030607D01*
X030006Y030565D01*
X030044Y030525D01*
X030085Y030488D01*
X030129Y030453D01*
X030175Y030422D01*
X030223Y030395D01*
X030272Y030370D01*
X030324Y030349D01*
X030376Y030332D01*
X030430Y030318D01*
X030485Y030308D01*
X030540Y030302D01*
X030595Y030300D01*
X030595Y030309D01*
X030540Y030311D01*
X030486Y030317D01*
X030432Y030327D01*
X030379Y030341D01*
X030327Y030358D01*
X030276Y030378D01*
X030227Y030403D01*
X030180Y030430D01*
X030134Y030461D01*
X030091Y030494D01*
X030050Y030531D01*
X030012Y030571D01*
X029977Y030613D01*
X029945Y030657D01*
X029916Y030703D01*
X029924Y030708D01*
X029952Y030662D01*
X029984Y030618D01*
X030019Y030577D01*
X030057Y030538D01*
X030097Y030501D01*
X030139Y030468D01*
X030184Y030438D01*
X030231Y030410D01*
X030280Y030387D01*
X030330Y030366D01*
X030381Y030349D01*
X030434Y030336D01*
X030487Y030326D01*
X030541Y030320D01*
X030595Y030318D01*
X030595Y030327D01*
X030542Y030329D01*
X030488Y030335D01*
X030436Y030345D01*
X030384Y030358D01*
X030333Y030375D01*
X030283Y030395D01*
X030235Y030418D01*
X030189Y030445D01*
X030145Y030475D01*
X030103Y030508D01*
X030063Y030544D01*
X030026Y030583D01*
X029991Y030624D01*
X029960Y030667D01*
X029931Y030712D01*
X029939Y030717D01*
X029967Y030672D01*
X029998Y030629D01*
X030032Y030589D01*
X030069Y030551D01*
X030108Y030515D01*
X030150Y030483D01*
X030194Y030453D01*
X030240Y030426D01*
X030287Y030403D01*
X030336Y030383D01*
X030386Y030366D01*
X030438Y030353D01*
X030490Y030344D01*
X030542Y030338D01*
X030595Y030336D01*
X030604Y030256D02*
X030604Y030346D01*
X030605Y030345D02*
X030659Y030347D01*
X030712Y030353D01*
X030765Y030363D01*
X030817Y030377D01*
X030868Y030394D01*
X030918Y030415D01*
X030966Y030439D01*
X031012Y030467D01*
X031056Y030498D01*
X031097Y030532D01*
X031137Y030569D01*
X031173Y030608D01*
X031241Y030551D01*
X031242Y030550D01*
X031204Y030509D01*
X031164Y030471D01*
X031121Y030435D01*
X031076Y030402D01*
X031029Y030372D01*
X030981Y030346D01*
X030930Y030322D01*
X030878Y030302D01*
X030825Y030286D01*
X030771Y030272D01*
X030716Y030263D01*
X030661Y030257D01*
X030605Y030255D01*
X030605Y030264D01*
X030660Y030266D01*
X030715Y030272D01*
X030769Y030281D01*
X030823Y030294D01*
X030875Y030311D01*
X030927Y030330D01*
X030977Y030354D01*
X031025Y030380D01*
X031071Y030410D01*
X031116Y030442D01*
X031158Y030477D01*
X031198Y030516D01*
X031235Y030556D01*
X031228Y030562D01*
X031191Y030522D01*
X031152Y030484D01*
X031110Y030449D01*
X031066Y030417D01*
X031020Y030388D01*
X030972Y030362D01*
X030923Y030339D01*
X030872Y030319D01*
X030820Y030303D01*
X030767Y030290D01*
X030714Y030281D01*
X030659Y030275D01*
X030605Y030273D01*
X030605Y030282D01*
X030659Y030284D01*
X030712Y030290D01*
X030765Y030299D01*
X030818Y030312D01*
X030869Y030328D01*
X030920Y030347D01*
X030968Y030370D01*
X031016Y030395D01*
X031061Y030424D01*
X031105Y030456D01*
X031146Y030491D01*
X031185Y030528D01*
X031221Y030568D01*
X031214Y030574D01*
X031178Y030534D01*
X031140Y030497D01*
X031099Y030463D01*
X031056Y030432D01*
X031011Y030403D01*
X030964Y030378D01*
X030916Y030355D01*
X030866Y030336D01*
X030815Y030320D01*
X030764Y030308D01*
X030711Y030299D01*
X030658Y030293D01*
X030605Y030291D01*
X030605Y030300D01*
X030658Y030302D01*
X030710Y030308D01*
X030762Y030317D01*
X030813Y030329D01*
X030863Y030345D01*
X030913Y030364D01*
X030960Y030386D01*
X031007Y030411D01*
X031051Y030439D01*
X031093Y030470D01*
X031134Y030504D01*
X031172Y030541D01*
X031207Y030579D01*
X031201Y030585D01*
X031165Y030547D01*
X031128Y030511D01*
X031088Y030477D01*
X031046Y030447D01*
X031002Y030419D01*
X030956Y030394D01*
X030909Y030372D01*
X030860Y030353D01*
X030811Y030338D01*
X030760Y030325D01*
X030709Y030317D01*
X030657Y030311D01*
X030605Y030309D01*
X030605Y030318D01*
X030661Y030320D01*
X030716Y030327D01*
X030771Y030337D01*
X030825Y030351D01*
X030878Y030369D01*
X030929Y030391D01*
X030979Y030416D01*
X031027Y030445D01*
X031072Y030477D01*
X031115Y030512D01*
X031156Y030550D01*
X031194Y030591D01*
X031187Y030597D01*
X031150Y030556D01*
X031109Y030519D01*
X031067Y030484D01*
X031022Y030452D01*
X030974Y030424D01*
X030925Y030399D01*
X030874Y030377D01*
X030822Y030360D01*
X030769Y030346D01*
X030715Y030336D01*
X030660Y030329D01*
X030605Y030327D01*
X030605Y030336D01*
X030659Y030338D01*
X030713Y030344D01*
X030767Y030354D01*
X030820Y030368D01*
X030871Y030386D01*
X030921Y030407D01*
X030970Y030432D01*
X031017Y030460D01*
X031061Y030491D01*
X031103Y030525D01*
X031143Y030563D01*
X031180Y030603D01*
X031245Y031644D02*
X031176Y031587D01*
X031177Y031587D02*
X031140Y031627D01*
X031101Y031665D01*
X031059Y031699D01*
X031015Y031731D01*
X030969Y031759D01*
X030920Y031784D01*
X030870Y031805D01*
X030819Y031823D01*
X030766Y031836D01*
X030713Y031846D01*
X030659Y031853D01*
X030605Y031855D01*
X030604Y031944D01*
X030605Y031945D01*
X030661Y031943D01*
X030717Y031937D01*
X030772Y031927D01*
X030827Y031914D01*
X030880Y031897D01*
X030933Y031877D01*
X030984Y031853D01*
X031033Y031826D01*
X031080Y031795D01*
X031125Y031762D01*
X031168Y031726D01*
X031208Y031687D01*
X031246Y031645D01*
X031239Y031639D01*
X031202Y031680D01*
X031162Y031719D01*
X031120Y031755D01*
X031075Y031788D01*
X031028Y031818D01*
X030980Y031845D01*
X030929Y031868D01*
X030877Y031889D01*
X030824Y031905D01*
X030770Y031918D01*
X030716Y031928D01*
X030661Y031934D01*
X030605Y031936D01*
X030605Y031927D01*
X030660Y031925D01*
X030715Y031919D01*
X030769Y031910D01*
X030822Y031897D01*
X030874Y031880D01*
X030926Y031860D01*
X030975Y031837D01*
X031024Y031810D01*
X031070Y031781D01*
X031114Y031748D01*
X031156Y031712D01*
X031195Y031674D01*
X031232Y031633D01*
X031225Y031628D01*
X031189Y031668D01*
X031150Y031706D01*
X031108Y031741D01*
X031065Y031773D01*
X031019Y031803D01*
X030971Y031829D01*
X030922Y031852D01*
X030872Y031872D01*
X030820Y031888D01*
X030767Y031901D01*
X030713Y031910D01*
X030659Y031916D01*
X030605Y031918D01*
X030605Y031909D01*
X030659Y031907D01*
X030712Y031901D01*
X030765Y031892D01*
X030817Y031879D01*
X030869Y031863D01*
X030919Y031844D01*
X030967Y031821D01*
X031014Y031795D01*
X031060Y031766D01*
X031103Y031734D01*
X031144Y031699D01*
X031182Y031662D01*
X031218Y031622D01*
X031211Y031616D01*
X031176Y031655D01*
X031138Y031692D01*
X031097Y031727D01*
X031054Y031758D01*
X031010Y031787D01*
X030963Y031813D01*
X030915Y031835D01*
X030866Y031855D01*
X030815Y031871D01*
X030763Y031883D01*
X030711Y031892D01*
X030658Y031898D01*
X030605Y031900D01*
X030605Y031891D01*
X030657Y031889D01*
X030710Y031883D01*
X030761Y031874D01*
X030812Y031862D01*
X030863Y031846D01*
X030912Y031827D01*
X030959Y031805D01*
X031005Y031779D01*
X031049Y031751D01*
X031091Y031720D01*
X031132Y031686D01*
X031169Y031649D01*
X031204Y031610D01*
X031198Y031604D01*
X031163Y031643D01*
X031125Y031679D01*
X031086Y031713D01*
X031044Y031744D01*
X031000Y031772D01*
X030955Y031797D01*
X030908Y031819D01*
X030860Y031838D01*
X030810Y031853D01*
X030760Y031866D01*
X030708Y031874D01*
X030657Y031880D01*
X030605Y031882D01*
X030605Y031873D01*
X030656Y031871D01*
X030707Y031866D01*
X030758Y031857D01*
X030808Y031845D01*
X030857Y031829D01*
X030904Y031811D01*
X030951Y031789D01*
X030996Y031764D01*
X031039Y031736D01*
X031080Y031706D01*
X031119Y031673D01*
X031156Y031637D01*
X031191Y031599D01*
X031184Y031593D01*
X031147Y031634D01*
X031107Y031672D01*
X031065Y031706D01*
X031020Y031738D01*
X030973Y031767D01*
X030924Y031792D01*
X030873Y031813D01*
X030822Y031831D01*
X030768Y031845D01*
X030714Y031855D01*
X030660Y031862D01*
X030605Y031864D01*
D26*
X030680Y028100D03*
X033520Y028100D03*
M02*
