%
M48
M72
T01C0.0320
T02C0.0394
T03C0.0400
T04C0.0440
T05C0.0520
T06C0.0591
T07C0.0710
T08C0.1378
%
T01
X19600Y4600
X21350Y6600
X22100Y6100
X22100Y7100
X19600Y8600
X19600Y12100
X21350Y14100
X22100Y13600
X22100Y14600
X19600Y16100
X19600Y19600
X21350Y21600
X22100Y21100
X22100Y22100
X19600Y23600
X19600Y27100
X21350Y29100
X22100Y28600
X22100Y29600
X19600Y31100
X30100Y31100
X31100Y31100
X30100Y28100
X34100Y28100
T02
X33880Y30600
X35100Y32490
X36281Y30600
X36600Y21600
X36600Y20600
X36600Y19600
X36600Y18600
X36600Y17600
X36600Y16600
X36600Y15600
X36600Y14600
X36600Y13600
X36600Y12600
X36600Y11600
X36600Y10600
X36600Y9600
X36600Y8600
X36600Y7600
X25600Y7600
X25600Y8600
X25600Y9600
X25600Y10600
X25600Y11600
X25600Y12600
X25600Y13600
X25600Y14600
X25600Y15600
X25600Y16600
X25600Y17600
X25600Y18600
X25600Y19600
X25600Y20600
X25600Y21600
T03
X25100Y31100
X26100Y31100
X27100Y31100
T04
X7600Y31100
X7600Y27100
X7600Y23600
X7600Y19600
X7600Y16100
X7600Y12100
X7600Y8600
X7600Y4600
T05
X11200Y4240
X11200Y8960
X11200Y11740
X11200Y16460
X11200Y19240
X11200Y23960
X11200Y26740
X11200Y31460
X16000Y31460
X16000Y26740
X16000Y23960
X16000Y19240
X16000Y16460
X16000Y11740
X16000Y8960
X16000Y4240
T06
X4100Y4663
X4100Y6631
X4100Y8600
X4100Y12163
X4100Y14131
X4100Y16100
X4100Y19663
X4100Y21631
X4100Y23600
X4100Y27163
X4100Y29131
X4100Y31100
T07
X10370Y29100
X10370Y21600
X10370Y14100
X10370Y6600
T08
X2069Y2069
X2069Y35533
X37108Y35533
X37108Y2069
M30
