G75*
%MOIN*%
%OFA0B0*%
%FSLAX24Y24*%
%IPPOS*%
%LPD*%
%AMOC8*
5,1,8,0,0,1.08239X$1,22.5*
%
%ADD10C,0.1458*%
%ADD11C,0.0740*%
%ADD12OC8,0.0600*%
%ADD13OC8,0.0740*%
%ADD14C,0.0740*%
%ADD15C,0.0860*%
%ADD16C,0.1145*%
%ADD17C,0.0680*%
%ADD18C,0.0867*%
%ADD19C,0.0966*%
D10*
X002069Y002069D03*
X002069Y035533D03*
X037108Y035533D03*
X037108Y002069D03*
D11*
X036930Y007600D02*
X036270Y007600D01*
X036270Y008600D02*
X036930Y008600D01*
X036930Y009600D02*
X036270Y009600D01*
X036270Y010600D02*
X036930Y010600D01*
X036930Y011600D02*
X036270Y011600D01*
X036270Y012600D02*
X036930Y012600D01*
X036930Y013600D02*
X036270Y013600D01*
X036270Y014600D02*
X036930Y014600D01*
X036930Y015600D02*
X036270Y015600D01*
X036270Y016600D02*
X036930Y016600D01*
X036930Y017600D02*
X036270Y017600D01*
X036270Y018600D02*
X036930Y018600D01*
X036930Y019600D02*
X036270Y019600D01*
X036270Y020600D02*
X036930Y020600D01*
X036930Y021600D02*
X036270Y021600D01*
X025930Y021600D02*
X025270Y021600D01*
X025270Y020600D02*
X025930Y020600D01*
X025930Y019600D02*
X025270Y019600D01*
X025270Y018600D02*
X025930Y018600D01*
X025930Y017600D02*
X025270Y017600D01*
X025270Y016600D02*
X025930Y016600D01*
X025930Y015600D02*
X025270Y015600D01*
X025270Y014600D02*
X025930Y014600D01*
X025930Y013600D02*
X025270Y013600D01*
X025270Y012600D02*
X025930Y012600D01*
X025930Y011600D02*
X025270Y011600D01*
X025270Y010600D02*
X025930Y010600D01*
X025930Y009600D02*
X025270Y009600D01*
X025270Y008600D02*
X025930Y008600D01*
X025930Y007600D02*
X025270Y007600D01*
D12*
X022100Y007100D03*
X021350Y006600D03*
X022100Y006100D03*
X022100Y013600D03*
X021350Y014100D03*
X022100Y014600D03*
X022100Y021100D03*
X021350Y021600D03*
X022100Y022100D03*
X022100Y028600D03*
X021350Y029100D03*
X022100Y029600D03*
D13*
X019600Y031100D03*
X019600Y027100D03*
X019600Y023600D03*
X019600Y019600D03*
X019600Y016100D03*
X019600Y012100D03*
X019600Y008600D03*
X019600Y004600D03*
X030100Y028100D03*
X030100Y031100D03*
X031100Y031100D03*
X034100Y028100D03*
D14*
X007600Y027100D03*
X007600Y023600D03*
X007600Y019600D03*
X007600Y016100D03*
X007600Y012100D03*
X007600Y008600D03*
X007600Y004600D03*
X007600Y031100D03*
D15*
X010810Y031460D02*
X011590Y031460D01*
X015610Y031460D02*
X016390Y031460D01*
X016390Y026740D02*
X015610Y026740D01*
X015610Y023960D02*
X016390Y023960D01*
X016390Y019240D02*
X015610Y019240D01*
X015610Y016460D02*
X016390Y016460D01*
X016390Y011740D02*
X015610Y011740D01*
X015610Y008960D02*
X016390Y008960D01*
X016390Y004240D02*
X015610Y004240D01*
X011590Y004240D02*
X010810Y004240D01*
X010810Y008960D02*
X011590Y008960D01*
X011590Y011740D02*
X010810Y011740D01*
X010810Y016460D02*
X011590Y016460D01*
X011590Y019240D02*
X010810Y019240D01*
X010810Y023960D02*
X011590Y023960D01*
X011590Y026740D02*
X010810Y026740D01*
D16*
X010903Y029100D02*
X009838Y029100D01*
X009838Y021600D02*
X010903Y021600D01*
X010903Y014100D02*
X009838Y014100D01*
X009838Y006600D02*
X010903Y006600D01*
D17*
X025100Y030800D02*
X025100Y031400D01*
X026100Y031400D02*
X026100Y030800D01*
X027100Y030800D02*
X027100Y031400D01*
D18*
X033880Y030994D02*
X033880Y030206D01*
X034706Y032490D02*
X035494Y032490D01*
X036281Y030994D02*
X036281Y030206D01*
D19*
X004100Y031100D03*
X004100Y029131D03*
X004100Y027163D03*
X004100Y023600D03*
X004100Y021631D03*
X004100Y019663D03*
X004100Y016100D03*
X004100Y014131D03*
X004100Y012163D03*
X004100Y008600D03*
X004100Y006631D03*
X004100Y004663D03*
M02*
